<?xml version="1.0" encoding="UTF-8"?>
<svg id="Design" xmlns="http://www.w3.org/2000/svg" xmlns:xlink="http://www.w3.org/1999/xlink" viewBox="0 0 1242 2688">
  <defs>
    <style>
      .cls-1 {
        fill: #8dc63f;
      }

      .cls-1, .cls-2, .cls-3, .cls-4, .cls-5, .cls-6, .cls-7 {
        stroke-width: 0px;
      }

      .cls-2 {
        fill: url(#Orange_Yellow);
      }

      .cls-3 {
        fill: url(#Orange_Yellow-2);
      }

      .cls-4 {
        fill: #fff;
      }

      .cls-5 {
        fill: url(#Orange_Yellow-4);
      }

      .cls-6 {
        fill: #002000;
      }

      .cls-7 {
        fill: url(#Orange_Yellow-3);
      }
    </style>
    <linearGradient id="Orange_Yellow" data-name="Orange, Yellow" x1="460.36" y1="1475.8" x2="831.7" y2="1475.8" gradientUnits="userSpaceOnUse">
      <stop offset="0" stop-color="#fff33b"/>
      <stop offset=".04" stop-color="#fee62d"/>
      <stop offset=".12" stop-color="#fdd51b"/>
      <stop offset=".2" stop-color="#fdca0f"/>
      <stop offset=".28" stop-color="#fdc70c"/>
      <stop offset=".67" stop-color="#f3903f"/>
      <stop offset=".89" stop-color="#ed683c"/>
      <stop offset="1" stop-color="#e93e3a"/>
    </linearGradient>
    <linearGradient id="Orange_Yellow-2" data-name="Orange, Yellow" x1="845.78" y1="1342.58" x2="912.07" y2="1342.58" xlink:href="#Orange_Yellow"/>
    <linearGradient id="Orange_Yellow-3" data-name="Orange, Yellow" x1="836.22" y1="1419.1" x2="875.59" y2="1419.1" xlink:href="#Orange_Yellow"/>
    <linearGradient id="Orange_Yellow-4" data-name="Orange, Yellow" x1="472.4" y1="1246.09" x2="656.98" y2="926.4" xlink:href="#Orange_Yellow"/>
  </defs>
  <rect class="cls-6" width="1242" height="2688"/>
  <g>
    <g>
      <path class="cls-2" d="m460.36,1384.47c13.89,20.08,29.92,37.22,47.82,51.8,22.32,18.18,46.5,31.26,72.55,39.17,17.34,5.26,34.92,8.06,52.83,8.32,18.51.27,36.8-1.7,54.86-6.64,17.94-4.91,35.19-12.22,51.68-22.18,1.02-.62,2.06-1.17,3.1-1.73.18-.1.39-.08.75-.14,3.27,2.97,5.85,6.93,8.31,10.96,6.5,10.69,10.76,22.7,13.08,35.62,1.37,7.61,1.93,15.43,2.91,23.14,1.11,8.74,2.72,17.3,6.21,25.2,5.09,11.52,12.72,18.36,23.57,19.34,5.86.53,10.95-2.36,15.72-6.05,10.34-8,16.32-19.53,17.66-34.31.79-8.7-.07-17.37-2.01-25.83-7.85-34.29-25.46-57.86-52.61-70.91-.38-.18-.77-.38-1.14-.58-.08-.04-.13-.16-.43-.56,14.12-12.67,26.85-27.16,38.47-43.1-.02-.59-.05-1.18-.07-1.77-4.08,3.43-8.16,6.86-12.25,10.29-16.16,13.54-33.34,24.81-51.42,34.06-22.53,11.52-45.89,19.39-70.06,23.7-20.96,3.74-42.02,4.6-63.16,2.82-26.79-2.25-52.82-8.93-78.08-20-19.73-8.64-38.53-19.65-56.18-33.46-6.94-5.43-13.58-11.44-20.37-17.17-.16-.13-.4-.14-.6-.2-.38.08-.77.16-1.15.24Zm334.4,115.14c-5.62-24.6-15.15-45.71-34.98-58.01,1.38-1.1,2.57-2.04,3.75-2.99,1.28-1.03,2.55-2.07,3.94-3.21,18.87,15.37,26.51,37.56,27.3,64.2Z"/>
      <path class="cls-3" d="m845.83,1369.02c1.5.2,3,.46,4.5.59,12.12,1.04,24.19.97,36.08-2.67,5.45-1.67,10.64-4.13,15.24-8.17,3.15-2.76,5.79-6.1,7.71-10.22,3.8-8.12,3.61-16.27-.64-23.91-4.12-7.38-10.12-10.73-17.44-9.41-7.67,1.39-12.74,6.87-14.97,15.95-2.35,9.54-7.31,16.83-13.18,23.36-4.22,4.7-9,8.46-14.08,11.66-1.09.69-2.18,1.37-3.27,2.05.02.25.04.51.06.76Zm42.31-25.84c2.45-3.24,4.28-6.64,4.64-10.98.04-.48.28-.95.49-1.38,1.1-2.3,3.42-3.21,5.37-2.14,2.02,1.11,3.15,4.22,2.06,6.62-.76,1.69-1.93,3.3-3.22,4.39-2.74,2.32-5.95,3.27-9.33,3.48Z"/>
      <path class="cls-7" d="m836.22,1412.62c6.3,3.68,10.8,9.57,14.76,16.27,3.81,6.46,10.7,8.55,16.61,5.3,5.75-3.16,9.01-10.89,7.73-18.36-1.36-7.91-6.59-13.46-13.17-13.32-9.07.19-17.5,3.39-25.24,9.17-.24.18-.39.53-.68.95Zm28.62-3.18c2.76.58,5.14,2.32,6.12,4.47.88,1.93.69,4.12-.47,5.59-1.09,1.37-2.89,1.74-4.3.89-1.4-.84-2.24-2.72-2.04-4.7.2-2.09.46-4.17.69-6.26Z"/>
    </g>
    <g>
      <path class="cls-1" d="m740.3,1279.95c-.99,4.96-3.21,9.73-6.68,13.87-34.92,41.51-74.36,50.23-101.28,50.23-18.62,0-37.05-4.21-53.33-12.18-47.18-23.12-71.62-72.42-60.81-122.69.54-2.51,1.12-5,1.75-7.42-4.75,3.2-10.38,5.11-16.39,5.32-.11.01-.77.03-.99.03-12.33,0-23.57-7.2-28.63-18.34l-9.05-19.9c-.61-1.35-1.9-2.09-2.8-2.09-4.11.2-8.18.31-12.16.32-4.77,18.46-7.16,38.16-7.16,59.09,0,38.81,8.03,73.26,24.1,103.37,16.08,30.13,38.88,53.59,68.46,70.4,29.55,16.82,63.55,25.21,101.98,25.21,48.78,0,89.79-13.02,123.05-39.07,33.25-26.05,54.68-61.43,64.29-106.14h-84.35Zm20.07-213.11c-24.72-19.35-53.7-31.52-86.98-36.49-3.47,5.96-7.52,11.66-12.07,16.98l-16.83,19.7c-3.76,4.42-4.72,10.55-2.51,16.01,3.69,9.02,7.62,17.81,11.77,26.23,36.02,5.76,70.15,25.9,84.13,50.57,2.45,4.31,4.3,8.71,5.55,13.14h81.23c-9.61-44.71-31.04-80.09-64.29-106.14Z"/>
      <path class="cls-5" d="m632.33,1322.8c-16.4,0-31.62-3.97-43.98-10.02-38.26-18.74-58.1-58.58-49.39-99.13,13.86-64.45,55.11-80.08,78.47-83.65.2-.03.4-.06.59-.09-5.64-11.21-10.49-22.01-14.27-31.28-8.07-19.8-4.49-42.18,9.34-58.38l16.82-19.7c7.57-8.87,12.97-19.22,15.61-29.94,3.59-14.59.21-32.91-8.63-46.69-6.07-9.45-13.8-15.49-21.78-17.01-33.2-6.33-58.43-1.14-73.58,14.98,18.91,22.35,29.66,50.46,24.92,70-2.92,12.04-11.63,20.04-23.9,21.93-10.3,1.58-20.04-3.62-26.77-14.29-11.25-17.82-13.7-49.62-.08-75.52-2.2-1.94-4.49-3.79-6.87-5.52-16.11-11.7-41.45-21.88-70.7-3.89-20.86,12.84-26.36,32.13-26.23,49.17,31.89,5.1,64.86,25.58,77.32,49.72,7.38,14.3,6.69,28.57-1.95,40.18-8.15,10.95-19.77,15.22-32.71,12.01-26.3-6.51-53.63-44.08-60.83-83.02-16.9.9-28.82,8.6-35.44,22.89-11.43,24.68-11.18,47.04.71,64.65,16.52,24.48,54.28,37.7,100.98,35.34,17.88-.88,34.96,9.65,42.5,26.24l.05.11c16.37-28.56,42.56-48.38,78.12-59.03,5.29-1.6,10.88,1.42,12.47,6.72,1.59,5.3-1.42,10.88-6.72,12.47-37.68,11.3-62.08,33.3-74.59,67.26-1.4,3.81-4.97,6.4-9.03,6.54-4.03.08-7.8-2.16-9.48-5.86l-9.05-19.91c-4.17-9.18-13.48-14.99-23.26-14.52-54.57,2.72-97.8-13.35-118.59-44.14-15.8-23.4-16.61-53.33-2.28-84.27,9.61-20.76,27.91-32.89,51.75-34.43.1-28.05,12.46-50.82,35.78-65.17,30.18-18.57,63.2-16.89,92.97,4.74,2.34,1.7,4.63,3.51,6.85,5.41,14.18-14.64,41.52-29.98,91.41-20.47,13.44,2.56,25.83,11.75,34.89,25.87,11.84,18.46,16.14,42.33,11.22,62.3-3.38,13.73-10.24,26.92-19.83,38.15l-16.82,19.7c-8.95,10.49-11.26,24.98-6.03,37.82,5.62,13.78,11.61,26.52,17.7,38.01,35.22,2.3,68.01,21.15,79.39,41.24,6.99,12.33,6.27,25.12-1.99,35.09-6.55,7.92-15.44,11.48-25.04,9.99-22.3-3.42-45.81-34.1-64.16-66.41-2.58.14-5.16.41-7.75.81-31.99,4.9-53.4,28.44-61.92,68.07-6.86,31.88,8.3,62.08,38.62,76.93,26.68,13.08,70.16,13.71,104.87-27.55,3.56-4.23,9.87-4.78,14.11-1.22,4.23,3.56,4.78,9.88,1.22,14.11-26.43,31.42-57.42,42.66-85.03,42.66Zm20.27-171.85c16.89,26.88,33.09,43.16,42.81,44.65,2.19.35,4.15-.04,6.57-2.97,1.25-1.51,4.18-5.05-.01-12.45-6.35-11.21-25.89-24.23-49.37-29.24Zm-237.98-146.31c7.53,30.87,29.05,57.73,44.74,61.61,5.02,1.24,8.55-.11,11.83-4.53,1.47-1.97,5.93-7.98.22-19.04-8.03-15.57-31.71-32.3-56.8-38.04Zm115.8-44.59c-6.93,18.59-3.88,38.98,2.31,48.79,1.08,1.71,3.86,5.63,6.78,5.18,4.3-.66,6.47-2.65,7.49-6.85,2.66-10.98-3.85-30.05-16.58-47.12Z"/>
    </g>
  </g>
  <g>
    <g>
      <rect class="cls-4" x="0" y="2169.53" width="445.79" height="5"/>
      <rect class="cls-4" x="796.22" y="2169.53" width="445.78" height="5"/>
    </g>
    <g>
      <g>
        <g>
          <path class="cls-4" d="m557.27,2304.01c-.59,3.36-1.68,6.31-3.2,8.84-1.45,2.42-3.29,4.45-5.46,6.09-4.45,3.35-10.25,5.02-16.85,5.02-7.21,0-13.63-2.31-18.22-6.97-2.26-2.29-4.06-5.14-5.3-8.52h0c-1.29-3.51-1.99-7.57-1.99-12.2,0-3.72.5-7.13,1.45-10.19,1.34-4.35,3.55-8,6.4-10.86,4.86-4.86,11.55-7.05,18.83-7.43,5.63-.3,12.92,2.31,16.44,5.3,1.37,6.24-4.76,10.38-7.9,11.99-.25-.63-.66-1.4-1.05-2.01-.44-.71-.93-1.31-1.47-1.82-1.63-1.54-3.72-2.24-6.31-2.24-3.14,0-5.73,1.22-7.63,3.87-1.77,2.47-2.94,6.24-3.08,11.42,0,.36-.02.73-.02,1.11,0,.23,0,.45,0,.68v.55c.02.21.03.42.04.63.04,1.1.13,2.14.25,3.12,0,.01,0,.02,0,.03.46,3.69,1.47,6.47,2.81,8.41,1.9,2.74,4.44,3.93,7.54,3.93,2.43,0,4.46-.74,6.08-2.22.2-.18.4-.38.58-.58t0-.02c.99-1.09,1.8-2.5,2.39-4.28.05-.13.09-.27.14-.42.15-.5.29-1.02.4-1.57.09-.42.45-.72.87-.72h13.37c.55,0,.98.5.88,1.06Z"/>
          <path class="cls-4" d="m476.5,2279c2.59,0,4.68.7,6.31,2.24,1.64,1.54,2.86,3.99,3.47,7.6.07.43.44.75.88.75h13.19c.53,0,.94-.45.89-.98-.99-11.87-10.13-20.83-24.45-20.83-7.29,0-13.98,2.56-18.83,7.43-4.85,4.87-7.85,12.02-7.85,21.05s2.71,16.07,7.3,20.73c4.59,4.66,11,6.97,18.22,6.97,6.6,0,12.4-1.67,16.85-5.02,4.45-3.35,7.51-8.39,8.66-14.94.1-.55-.32-1.05-.88-1.05h-13.37c-.42,0-.79.3-.87.71-.65,3.12-1.89,5.38-3.51,6.87-1.62,1.48-3.65,2.22-6.08,2.22-3.1,0-5.64-1.19-7.54-3.93-1.9-2.74-3.1-7.13-3.1-13.42,0-5.75,1.19-9.89,3.09-12.53,1.91-2.64,4.49-3.86,7.64-3.86Z"/>
          <path class="cls-4" d="m398.02,2323.96l14.75-47.72,1.63-5c1.05-3.22,3.43-5.23,6.13-6.01.27-.09.55-.16.84-.22.31-.07.61-.11.92-.13.16-.01.31-.03.47-.04.16,0,.32-.01.48-.01s.32,0,.48.01c.16,0,.31.02.47.04.31.02.62.06.92.13.28.06.57.13.84.22,2.7.78,5.08,2.78,6.13,6.01l1.08,3.32.43,1.33.1.31.54,1.64.43,1.33,2.34,7.21c-2.86-3.42-6.87-2.33-7.67-2.12-3.27.88-9.04,9.05-9.04,9.05l-22.26,30.63Z"/>
          <path class="cls-4" d="m449.2,2323.96l-1.88-2.46-12.09-15.85c-2.31-3.07-4.31-6.04-10.7-6.43-.93-.06-5.45,1.29-5.91,1.38l1.39-1.82,1.9-2.49,2.95-3.86s3.4-4.24,6.36-4.62c4.13-.53,6.48,1.28,8.1,6.19l1.76,4.98,8.12,24.99Z"/>
          <path class="cls-4" d="m543.97,2297.43h-10.94l-3.9.03h-.02l-3.57-.03,1.25-.73,4.65-2.69,6.75-3.9s13.43-6.66,13.81-14.47c1.34,1.7,2.79,3.71,3.55,5.64,3.9,9.97-4.17,16.17-11.6,16.14Z"/>
        </g>
        <g>
          <path class="cls-4" d="m601.58,2310.86c-1.78-1.85-2.68-4.75-2.68-8.71v-11.81c0-3.96.89-6.86,2.68-8.71,1.78-1.85,4.29-2.77,7.51-2.77s5.63.89,7.38,2.68c1.74,1.78,2.61,4.48,2.61,8.09v.91h-4.44v-.91c0-4.52-1.83-6.79-5.48-6.79-1.92,0-3.36.61-4.34,1.83-.98,1.22-1.47,3.29-1.47,6.2v10.77c0,2.92.49,4.98,1.47,6.2.98,1.22,2.4,1.83,4.28,1.83,3.7,0,5.55-2.26,5.55-6.79v-.91h4.44v.85c0,3.61-.87,6.32-2.61,8.13-1.74,1.81-4.18,2.71-7.31,2.71s-5.79-.92-7.57-2.77Z"/>
          <path class="cls-4" d="m643.55,2279.37l-9.86,36.94c-.65,2.52-1.76,4.3-3.33,5.32-1.57,1.02-3.72,1.53-6.46,1.53h-.65v-3.98h1.11c1.7,0,3-.33,3.92-.98.91-.65,1.54-1.74,1.89-3.26l.26-1.04-9.14-34.53h4.83l6.4,25.78,6.2-25.78h4.83Z"/>
          <path class="cls-4" d="m650.53,2310.05v3.07h-4.44v-45.04h4.44v14.55c1.48-2.52,3.61-3.79,6.4-3.79s4.86.95,6.49,2.84c1.63,1.89,2.45,4.78,2.45,8.65v11.81c0,3.87-.82,6.76-2.45,8.65-1.63,1.89-3.78,2.84-6.43,2.84-2.83,0-4.98-1.2-6.46-3.59Zm9.56-2.25c.89-1.24,1.34-3.3,1.34-6.17v-10.77c0-5.35-1.76-8.03-5.29-8.03-1.83,0-3.22.69-4.18,2.06-.96,1.37-1.44,3.38-1.44,6.04v10.77c0,2.61.48,4.59,1.44,5.94.96,1.35,2.35,2.02,4.18,2.02s3.06-.62,3.95-1.86Z"/>
          <path class="cls-4" d="m675.2,2297.58v3.98c0,2.96.51,5.07,1.53,6.33,1.02,1.26,2.47,1.89,4.34,1.89,3.57,0,5.35-2.24,5.35-6.72v-.26h4.37v.2c0,3.52-.86,6.18-2.58,7.96-1.72,1.78-4.14,2.68-7.28,2.68-6.79,0-10.18-4-10.18-12.01v-10.9c0-3.92.88-6.87,2.64-8.88,1.76-2,4.21-3,7.34-3s5.6,1,7.41,3c1.8,2,2.71,4.96,2.71,8.88v6.85h-15.66Zm1.44-12.89c-.96,1.24-1.44,3.3-1.44,6.17v3.33h11.29v-3.46c0-2.83-.49-4.85-1.47-6.07-.98-1.22-2.38-1.83-4.21-1.83s-3.22.62-4.18,1.86Z"/>
          <path class="cls-4" d="m696.35,2279.37h4.31v3.33c.74-1.31,1.72-2.27,2.94-2.9,1.22-.63,2.59-.95,4.11-.95.91,0,1.72.09,2.41.26v4.31c-1.17-.39-2.26-.59-3.26-.59-1.78,0-3.24.57-4.37,1.7-1.13,1.13-1.7,2.68-1.7,4.63v23.95h-4.44v-33.74Z"/>
          <path class="cls-4" d="m724.38,2310.31c-1.98-2.18-3.01-5.35-3.1-9.53h4.63c.13,3.05.82,5.23,2.06,6.56,1.24,1.33,3.01,1.99,5.32,1.99s4.1-.66,5.25-1.99c1.15-1.33,1.73-3.36,1.73-6.1,0-2.39-.51-4.2-1.53-5.42-1.02-1.22-2.86-2.37-5.52-3.46l-2.61-1.04c-2.96-1.17-5.18-2.68-6.66-4.5-1.48-1.83-2.22-4.29-2.22-7.38,0-3.66,1.03-6.57,3.1-8.75,2.07-2.18,4.91-3.26,8.52-3.26s6.16,1.01,8.16,3.04c2,2.02,3.09,5.06,3.26,9.1h-4.5c-.3-5.26-2.63-7.9-6.98-7.9-2.26,0-3.96.65-5.09,1.96-1.13,1.31-1.7,3.16-1.7,5.55,0,2.13.51,3.81,1.53,5.03,1.02,1.22,2.77,2.31,5.25,3.26l2.68,1.04c3,1.18,5.26,2.72,6.79,4.63,1.52,1.92,2.28,4.59,2.28,8.03,0,3.96-1.02,7.02-3.07,9.17-2.05,2.15-5,3.23-8.88,3.23s-6.73-1.09-8.71-3.26Z"/>
          <path class="cls-4" d="m749.61,2279.37h4.44v3.26c1.48-2.52,3.61-3.79,6.4-3.79s4.86.95,6.49,2.84c1.63,1.89,2.45,4.78,2.45,8.65v11.81c0,3.87-.82,6.76-2.45,8.65-1.63,1.89-3.78,2.84-6.43,2.84-2.83,0-4.98-1.17-6.46-3.52v12.92h-4.44v-43.66Zm14,28.42c.89-1.24,1.34-3.3,1.34-6.17v-10.77c0-5.35-1.76-8.03-5.29-8.03-1.83,0-3.22.69-4.18,2.06-.96,1.37-1.44,3.38-1.44,6.04v10.77c0,2.61.48,4.59,1.44,5.94.96,1.35,2.35,2.02,4.18,2.02s3.06-.62,3.95-1.86Z"/>
          <path class="cls-4" d="m790.86,2281.43c1.65,1.72,2.48,4.12,2.48,7.21v24.48h-4.24v-3.13c-1.52,2.44-3.81,3.66-6.85,3.66-2.79,0-4.92-.88-6.4-2.64-1.48-1.76-2.22-4.23-2.22-7.41s.86-5.43,2.58-7.15,4.21-2.58,7.47-2.58h5.22v-5.42c0-3.79-1.74-5.68-5.22-5.68-1.61,0-2.85.44-3.72,1.31-.87.87-1.31,2.09-1.31,3.65v.52h-4.18v-.59c0-2.74.84-4.9,2.51-6.46,1.67-1.57,3.9-2.35,6.69-2.35,3.13,0,5.53.86,7.18,2.58Zm-3.43,26.7c.98-1.11,1.47-2.66,1.47-4.67v-6.27h-4.76c-4.05,0-6.07,2.11-6.07,6.33s1.74,6.27,5.22,6.27c1.78,0,3.17-.55,4.14-1.66Z"/>
          <path class="cls-4" d="m801.49,2310.86c-1.78-1.85-2.68-4.75-2.68-8.71v-11.81c0-3.96.89-6.86,2.68-8.71,1.78-1.85,4.29-2.77,7.51-2.77s5.63.89,7.38,2.68c1.74,1.78,2.61,4.48,2.61,8.09v.91h-4.44v-.91c0-4.52-1.83-6.79-5.48-6.79-1.92,0-3.36.61-4.34,1.83-.98,1.22-1.47,3.29-1.47,6.2v10.77c0,2.92.49,4.98,1.47,6.2.98,1.22,2.4,1.83,4.28,1.83,3.7,0,5.55-2.26,5.55-6.79v-.91h4.44v.85c0,3.61-.87,6.32-2.61,8.13-1.74,1.81-4.18,2.71-7.31,2.71s-5.79-.92-7.57-2.77Z"/>
          <path class="cls-4" d="m828.32,2297.58v3.98c0,2.96.51,5.07,1.53,6.33,1.02,1.26,2.47,1.89,4.34,1.89,3.57,0,5.35-2.24,5.35-6.72v-.26h4.37v.2c0,3.52-.86,6.18-2.58,7.96-1.72,1.78-4.15,2.68-7.28,2.68-6.79,0-10.18-4-10.18-12.01v-10.9c0-3.92.88-6.87,2.64-8.88,1.76-2,4.21-3,7.34-3s5.6,1,7.41,3c1.8,2,2.71,4.96,2.71,8.88v6.85h-15.67Zm1.44-12.89c-.96,1.24-1.44,3.3-1.44,6.17v3.33h11.29v-3.46c0-2.83-.49-4.85-1.47-6.07-.98-1.22-2.38-1.83-4.21-1.83s-3.22.62-4.18,1.86Z"/>
        </g>
        <g>
          <g>
            <path class="cls-4" d="m601.74,2247.26l-11.56-11.56c-2.2-2.2-2.2-5.76,0-7.95,1.1-1.1,2.54-1.65,3.98-1.65s2.88.55,3.98,1.65l3.67,3.67c1.37,1.37,2.3,3.12,2.65,5.03l.02.12c.09.49.16.99.2,1.48.28,3.38-.71,6.48-2.94,9.21Z"/>
            <path class="cls-4" d="m612.32,2255.54h0s0,.01-.01.02l-.75.78-.37.38-13.05,13.05c-2.2,2.2-5.76,2.2-7.95,0-1.1-1.1-1.65-2.54-1.65-3.98s.55-2.88,1.65-3.98l12.27-12.27c1.03-1.03,1.93-2.19,2.63-3.47,1.48-2.72,1.93-5.53,1.71-8.19-.05-.57-.12-1.13-.23-1.69l.59.59,2.22,2.21,2.81,2.8c3.65,3.84,3.7,9.85.15,13.75Z"/>
          </g>
          <g>
            <path class="cls-4" d="m567.75,2250.26l11.56,11.56c2.2,2.2,2.2,5.76,0,7.95-1.1,1.1-2.54,1.65-3.98,1.65s-2.88-.55-3.98-1.65l-3.67-3.67c-1.37-1.37-2.3-3.12-2.65-5.03l-.02-.12c-.09-.49-.16-.99-.2-1.48-.28-3.38.71-6.48,2.94-9.21Z"/>
            <path class="cls-4" d="m557.17,2241.99h0s0-.01.01-.02l.75-.78.37-.38,13.05-13.05c2.2-2.2,5.76-2.2,7.95,0,1.1,1.1,1.65,2.54,1.65,3.98s-.55,2.88-1.65,3.98l-12.27,12.27c-1.03,1.03-1.93,2.19-2.63,3.47-1.48,2.72-1.93,5.53-1.71,8.19.05.57.12,1.13.23,1.69l-.59-.59-2.22-2.21-2.81-2.8c-3.65-3.84-3.7-9.85-.15-13.75Z"/>
          </g>
        </g>
      </g>
      <g>
        <path class="cls-4" d="m518.34,2168.94c-1.69,1.57-4.22,2.36-7.6,2.36h-6.05v12.79h-3.01v-30.01h9.06c3.35,0,5.88.79,7.58,2.36,1.7,1.58,2.55,3.67,2.55,6.27s-.84,4.65-2.53,6.23Zm-.56-6.23c0-2-.56-3.52-1.67-4.55s-2.91-1.55-5.37-1.55h-6.05v12.11h6.05c4.69,0,7.04-2,7.04-6.01Z"/>
        <path class="cls-4" d="m530.21,2182.96c-1.76-.99-3.15-2.39-4.17-4.21-1.02-1.82-1.52-3.94-1.52-6.38s.52-4.56,1.55-6.38c1.03-1.82,2.43-3.22,4.21-4.21,1.77-.99,3.76-1.48,5.97-1.48s4.2.49,5.99,1.48c1.79.99,3.19,2.39,4.21,4.21,1.02,1.82,1.52,3.94,1.52,6.38s-.51,4.52-1.54,6.35c-1.03,1.83-2.45,3.24-4.25,4.23-1.8.99-3.81,1.48-6.01,1.48s-4.19-.49-5.95-1.48Zm10.24-2.19c1.32-.7,2.38-1.76,3.2-3.18.82-1.42,1.22-3.16,1.22-5.22s-.4-3.8-1.2-5.22c-.8-1.42-1.86-2.48-3.18-3.18-1.32-.7-2.75-1.05-4.29-1.05s-2.98.35-4.29,1.05c-1.32.7-2.37,1.76-3.16,3.18s-1.18,3.16-1.18,5.22.39,3.8,1.18,5.22,1.83,2.48,3.13,3.18c1.3.7,2.73,1.05,4.27,1.05s2.98-.35,4.29-1.05Z"/>
        <path class="cls-4" d="m584.38,2160.65l-7.34,23.44h-3l-6.48-19.67-6.48,19.67h-3.05l-7.34-23.44h3.05l5.84,20.39,6.57-20.39h3l6.48,20.44,5.8-20.44h2.96Z"/>
        <path class="cls-4" d="m609.58,2173.53h-19.45c.09,1.78.52,3.29,1.29,4.55s1.79,2.21,3.05,2.85c1.26.64,2.63.97,4.12.97,1.95,0,3.58-.47,4.92-1.42s2.21-2.22,2.64-3.82h3.18c-.57,2.29-1.8,4.16-3.67,5.6-1.88,1.45-4.23,2.17-7.06,2.17-2.21,0-4.18-.49-5.93-1.48s-3.11-2.39-4.1-4.21c-.99-1.82-1.48-3.94-1.48-6.38s.49-4.57,1.46-6.4c.97-1.83,2.33-3.23,4.08-4.21,1.75-.97,3.74-1.46,5.97-1.46s4.19.49,5.86,1.46c1.67.97,2.96,2.28,3.86,3.93.9,1.65,1.35,3.47,1.35,5.47,0,1.03-.03,1.82-.09,2.36Zm-4.01-6.91c-.73-1.23-1.72-2.16-2.98-2.79s-2.63-.95-4.12-.95c-2.23,0-4.14.72-5.71,2.15s-2.45,3.45-2.62,6.05h16.49c.03-1.75-.32-3.23-1.05-4.47Z"/>
        <path class="cls-4" d="m621.19,2161.43c1.36-.8,3.03-1.2,5-1.2v3.13h-.82c-2.17,0-3.92.59-5.24,1.76-1.32,1.17-1.98,3.13-1.98,5.88v13.1h-3.01v-23.44h3.01v4.17c.66-1.46,1.67-2.59,3.03-3.39Z"/>
        <path class="cls-4" d="m651.83,2173.53h-19.45c.09,1.78.52,3.29,1.29,4.55s1.79,2.21,3.05,2.85c1.26.64,2.63.97,4.12.97,1.95,0,3.58-.47,4.92-1.42s2.21-2.22,2.64-3.82h3.18c-.57,2.29-1.8,4.16-3.67,5.6-1.88,1.45-4.23,2.17-7.06,2.17-2.21,0-4.18-.49-5.93-1.48s-3.11-2.39-4.1-4.21c-.99-1.82-1.48-3.94-1.48-6.38s.49-4.57,1.46-6.4c.97-1.83,2.33-3.23,4.08-4.21,1.75-.97,3.74-1.46,5.97-1.46s4.19.49,5.86,1.46c1.67.97,2.96,2.28,3.86,3.93.9,1.65,1.35,3.47,1.35,5.47,0,1.03-.03,1.82-.09,2.36Zm-4.01-6.91c-.73-1.23-1.72-2.16-2.98-2.79s-2.63-.95-4.12-.95c-2.23,0-4.14.72-5.71,2.15s-2.45,3.45-2.62,6.05h16.49c.03-1.75-.32-3.23-1.05-4.47Z"/>
        <path class="cls-4" d="m657.5,2166c.97-1.82,2.31-3.22,4.01-4.21s3.63-1.48,5.78-1.48,3.92.5,5.58,1.5,2.88,2.3,3.65,3.91v-13.4h3v31.77h-3v-5.24c-.72,1.63-1.89,2.97-3.52,4.01-1.63,1.04-3.55,1.57-5.75,1.57s-4.07-.5-5.78-1.5-3.03-2.42-3.99-4.25c-.96-1.83-1.44-3.95-1.44-6.35s.49-4.51,1.46-6.33Zm17.86,1.4c-.77-1.43-1.83-2.53-3.16-3.31-1.33-.77-2.8-1.16-4.4-1.16s-3.15.37-4.46,1.12c-1.32.75-2.36,1.83-3.11,3.24-.76,1.42-1.14,3.1-1.14,5.04s.38,3.6,1.14,5.04c.76,1.45,1.8,2.55,3.11,3.31,1.32.76,2.8,1.14,4.46,1.14s3.07-.39,4.4-1.16c1.33-.77,2.38-1.88,3.16-3.31.77-1.43,1.16-3.09,1.16-4.98s-.39-3.55-1.16-4.98Z"/>
        <path class="cls-4" d="m716.49,2171.17c1.17,1.4,1.76,3.03,1.76,4.89,0,1.52-.38,2.88-1.14,4.1-.76,1.22-1.87,2.18-3.33,2.88s-3.21,1.05-5.24,1.05h-10.39v-30.01h10.09c3.03,0,5.34.7,6.93,2.1,1.59,1.4,2.38,3.22,2.38,5.45,0,1.86-.5,3.37-1.5,4.53-1,1.16-2.29,1.97-3.86,2.43,1.69.32,3.12,1.17,4.29,2.58Zm-15.33-3.82h7c2.03,0,3.6-.48,4.7-1.44,1.1-.96,1.65-2.28,1.65-3.97s-.55-2.96-1.65-3.91c-1.1-.94-2.71-1.42-4.83-1.42h-6.87v10.73Zm12.26,12.67c1.22-1.03,1.82-2.45,1.82-4.25s-.64-3.24-1.91-4.31c-1.27-1.07-2.98-1.61-5.13-1.61h-7.04v11.72h7.17c2.17,0,3.87-.52,5.09-1.55Z"/>
        <path class="cls-4" d="m743.11,2160.65l-13.91,34.48h-3.13l4.55-11.16-9.62-23.31h3.31l7.99,20.01,7.73-20.01h3.09Z"/>
      </g>
    </g>
    <g>
      <g>
        <path class="cls-4" d="m483.2,1978.17c.95,1.13,1.42,2.45,1.42,3.96,0,1.23-.31,2.33-.92,3.31s-1.51,1.76-2.69,2.33c-1.18.57-2.59.85-4.23.85h-8.4v-24.26h8.16c2.45,0,4.32.57,5.61,1.7,1.28,1.13,1.93,2.6,1.93,4.41,0,1.5-.41,2.72-1.21,3.66-.81.94-1.85,1.59-3.12,1.96,1.37.25,2.52.95,3.47,2.08Zm-12.39-3.09h5.66c1.64,0,2.91-.39,3.8-1.16.89-.78,1.34-1.85,1.34-3.21s-.45-2.39-1.34-3.16c-.89-.76-2.19-1.15-3.91-1.15h-5.55v8.68Zm9.91,10.24c.98-.83,1.47-1.98,1.47-3.44s-.51-2.62-1.54-3.49c-1.03-.87-2.41-1.3-4.15-1.3h-5.69v9.48h5.8c1.76,0,3.13-.42,4.11-1.25Z"/>
        <path class="cls-4" d="m493.98,1970.29c1.1-.65,2.45-.97,4.04-.97v2.53h-.66c-1.76,0-3.17.47-4.24,1.42-1.06.95-1.6,2.53-1.6,4.75v10.59h-2.43v-18.95h2.43v3.37c.53-1.18,1.35-2.09,2.45-2.74Z"/>
        <path class="cls-4" d="m505.16,1987.7c-1.42-.8-2.54-1.93-3.37-3.4-.82-1.47-1.23-3.19-1.23-5.15s.42-3.68,1.25-5.15,1.97-2.6,3.4-3.4c1.43-.8,3.04-1.2,4.82-1.2s3.4.4,4.84,1.2c1.45.8,2.58,1.93,3.4,3.4.82,1.47,1.23,3.19,1.23,5.15s-.42,3.66-1.25,5.14c-.83,1.48-1.98,2.62-3.44,3.42-1.46.8-3.08,1.2-4.86,1.2s-3.38-.4-4.81-1.2Zm8.28-1.77c1.06-.57,1.93-1.42,2.59-2.57.66-1.15.99-2.55.99-4.22s-.32-3.07-.97-4.22c-.65-1.14-1.5-2-2.57-2.57-1.06-.57-2.22-.85-3.47-.85s-2.41.28-3.47.85c-1.06.57-1.92,1.42-2.55,2.57-.64,1.15-.95,2.55-.95,4.22s.32,3.07.95,4.22c.64,1.15,1.48,2,2.53,2.57,1.05.57,2.2.85,3.45.85s2.41-.28,3.47-.85Z"/>
        <path class="cls-4" d="m540.37,1969.67v18.95h-2.43v-3.33c-.56,1.18-1.41,2.08-2.57,2.71s-2.45.94-3.89.94c-2.27,0-4.12-.7-5.55-2.1-1.43-1.4-2.15-3.43-2.15-6.09v-11.07h2.39v10.79c0,2.06.51,3.63,1.54,4.72,1.03,1.09,2.43,1.63,4.22,1.63s3.29-.58,4.37-1.74c1.09-1.16,1.63-2.86,1.63-5.1v-10.31h2.43Z"/>
        <path class="cls-4" d="m558.52,1970.64c1.32.83,2.27,1.89,2.85,3.16v-4.13h2.43v19.44c0,1.74-.38,3.27-1.13,4.62-.75,1.34-1.8,2.38-3.14,3.11-1.34.73-2.87,1.09-4.58,1.09-2.43,0-4.45-.58-6.06-1.74s-2.61-2.73-3-4.72h2.39c.42,1.32,1.21,2.37,2.38,3.16,1.17.79,2.6,1.18,4.29,1.18,1.23,0,2.33-.26,3.3-.78.97-.52,1.74-1.29,2.29-2.31.56-1.02.83-2.22.83-3.61v-4.69c-.6,1.3-1.56,2.37-2.86,3.21-1.31.84-2.85,1.27-4.63,1.27s-3.29-.4-4.67-1.21c-1.38-.81-2.45-1.96-3.23-3.44-.78-1.48-1.16-3.19-1.16-5.14s.39-3.65,1.16-5.12c.77-1.47,1.85-2.6,3.23-3.4,1.38-.8,2.93-1.2,4.67-1.2s3.33.42,4.65,1.25Zm1.91,4.48c-.62-1.16-1.47-2.05-2.55-2.67s-2.26-.94-3.56-.94-2.55.3-3.61.9-1.9,1.47-2.52,2.62-.92,2.5-.92,4.08.31,2.91.92,4.08c.61,1.17,1.45,2.06,2.52,2.67,1.06.61,2.27.92,3.61.92s2.48-.31,3.56-.94c1.08-.62,1.93-1.52,2.55-2.67s.94-2.5.94-4.03-.31-2.87-.94-4.03Z"/>
        <path class="cls-4" d="m582.25,1970.22c1.14.6,2.05,1.52,2.71,2.76.66,1.24.99,2.75.99,4.53v11.11h-2.4v-10.83c0-2.06-.51-3.63-1.54-4.72-1.03-1.09-2.44-1.63-4.22-1.63s-3.29.58-4.37,1.74c-1.09,1.16-1.63,2.86-1.63,5.1v10.34h-2.43v-25.69h2.43v9.96c.6-1.13,1.49-2.01,2.66-2.64,1.17-.62,2.48-.94,3.94-.94s2.73.3,3.87.9Z"/>
        <path class="cls-4" d="m594.48,1971.71v11.77c0,1.16.22,1.96.66,2.39.44.44,1.21.66,2.33.66h2.22v2.08h-2.6c-1.71,0-2.98-.4-3.82-1.2-.83-.8-1.25-2.11-1.25-3.94v-11.77h-2.64v-2.05h2.64v-4.76h2.46v4.76h5.21v2.05h-5.21Z"/>
        <path class="cls-4" d="m616.35,1971.71v11.77c0,1.16.22,1.96.66,2.39.44.44,1.21.66,2.33.66h2.22v2.08h-2.6c-1.71,0-2.98-.4-3.82-1.2-.83-.8-1.25-2.11-1.25-3.94v-11.77h-2.64v-2.05h2.64v-4.76h2.46v4.76h5.21v2.05h-5.21Z"/>
        <path class="cls-4" d="m629.03,1987.7c-1.42-.8-2.54-1.93-3.37-3.4-.82-1.47-1.23-3.19-1.23-5.15s.42-3.68,1.25-5.15,1.97-2.6,3.4-3.4c1.43-.8,3.04-1.2,4.82-1.2s3.4.4,4.84,1.2c1.45.8,2.58,1.93,3.4,3.4.82,1.47,1.23,3.19,1.23,5.15s-.42,3.66-1.25,5.14c-.83,1.48-1.98,2.62-3.44,3.42-1.46.8-3.08,1.2-4.86,1.2s-3.38-.4-4.81-1.2Zm8.28-1.77c1.06-.57,1.93-1.42,2.59-2.57.66-1.15.99-2.55.99-4.22s-.32-3.07-.97-4.22c-.65-1.14-1.5-2-2.57-2.57-1.06-.57-2.22-.85-3.47-.85s-2.41.28-3.47.85c-1.06.57-1.92,1.42-2.55,2.57-.64,1.15-.95,2.55-.95,4.22s.32,3.07.95,4.22c.64,1.15,1.48,2,2.53,2.57,1.05.57,2.2.85,3.45.85s2.41-.28,3.47-.85Z"/>
        <path class="cls-4" d="m672.96,1969.67l-11.25,27.87h-2.53l3.68-9.02-7.78-18.85h2.67l6.46,16.17,6.25-16.17h2.5Z"/>
        <path class="cls-4" d="m679.74,1987.7c-1.42-.8-2.54-1.93-3.37-3.4-.82-1.47-1.23-3.19-1.23-5.15s.42-3.68,1.25-5.15,1.97-2.6,3.4-3.4c1.43-.8,3.04-1.2,4.82-1.2s3.4.4,4.84,1.2c1.45.8,2.58,1.93,3.4,3.4.82,1.47,1.23,3.19,1.23,5.15s-.42,3.66-1.25,5.14c-.83,1.48-1.98,2.62-3.44,3.42-1.46.8-3.08,1.2-4.86,1.2s-3.38-.4-4.81-1.2Zm8.28-1.77c1.06-.57,1.93-1.42,2.59-2.57.66-1.15.99-2.55.99-4.22s-.32-3.07-.97-4.22c-.65-1.14-1.5-2-2.57-2.57-1.06-.57-2.22-.85-3.47-.85s-2.41.28-3.47.85c-1.06.57-1.92,1.42-2.55,2.57-.64,1.15-.95,2.55-.95,4.22s.32,3.07.95,4.22c.64,1.15,1.48,2,2.53,2.57,1.05.57,2.2.85,3.45.85s2.41-.28,3.47-.85Z"/>
        <path class="cls-4" d="m714.96,1969.67v18.95h-2.43v-3.33c-.56,1.18-1.41,2.08-2.57,2.71s-2.45.94-3.89.94c-2.27,0-4.12-.7-5.55-2.1-1.43-1.4-2.15-3.43-2.15-6.09v-11.07h2.39v10.79c0,2.06.51,3.63,1.54,4.72,1.03,1.09,2.43,1.63,4.22,1.63s3.29-.58,4.37-1.74c1.09-1.16,1.63-2.86,1.63-5.1v-10.31h2.43Z"/>
        <path class="cls-4" d="m744.84,1978.17c.95,1.13,1.42,2.45,1.42,3.96,0,1.23-.31,2.33-.92,3.31s-1.51,1.76-2.69,2.33c-1.18.57-2.59.85-4.23.85h-8.4v-24.26h8.16c2.45,0,4.32.57,5.61,1.7,1.28,1.13,1.93,2.6,1.93,4.41,0,1.5-.41,2.72-1.21,3.66-.81.94-1.85,1.59-3.12,1.96,1.37.25,2.52.95,3.47,2.08Zm-12.39-3.09h5.66c1.64,0,2.91-.39,3.8-1.16.89-.78,1.34-1.85,1.34-3.21s-.45-2.39-1.34-3.16c-.89-.76-2.19-1.15-3.91-1.15h-5.55v8.68Zm9.91,10.24c.98-.83,1.47-1.98,1.47-3.44s-.51-2.62-1.54-3.49c-1.03-.87-2.41-1.3-4.15-1.3h-5.69v9.48h5.8c1.76,0,3.13-.42,4.11-1.25Z"/>
        <path class="cls-4" d="m766.36,1969.67l-11.25,27.87h-2.53l3.68-9.02-7.78-18.85h2.67l6.46,16.17,6.25-16.17h2.5Z"/>
      </g>
      <g>
        <path class="cls-4" d="m300.56,2031.98c1.99-3.6,4.75-6.4,8.31-8.41s7.58-3.01,12.08-3.01c5.52,0,10.24,1.46,14.17,4.37,3.93,2.91,6.55,6.88,7.88,11.91h-12.44c-.93-1.94-2.24-3.42-3.94-4.43-1.7-1.01-3.63-1.52-5.79-1.52-3.49,0-6.31,1.21-8.47,3.64-2.16,2.43-3.24,5.67-3.24,9.73s1.08,7.3,3.24,9.73c2.16,2.43,4.99,3.64,8.47,3.64,2.16,0,4.09-.51,5.79-1.52,1.7-1.01,3.01-2.49,3.94-4.43h12.44c-1.32,5.03-3.95,8.99-7.88,11.88-3.93,2.89-8.65,4.33-14.17,4.33-4.5,0-8.53-1-12.08-3.01-3.55-2.01-6.32-4.8-8.31-8.37-1.99-3.57-2.98-7.65-2.98-12.24s.99-8.68,2.98-12.28Z"/>
        <path class="cls-4" d="m349.83,2039.03c1.43-2.87,3.39-5.07,5.86-6.62,2.47-1.54,5.23-2.32,8.27-2.32,2.6,0,4.89.53,6.85,1.59,1.96,1.06,3.48,2.45,4.53,4.17v-5.23h11.32v36.93h-11.32v-5.23c-1.1,1.72-2.64,3.11-4.6,4.17-1.96,1.06-4.25,1.59-6.85,1.59-3,0-5.74-.78-8.21-2.35-2.47-1.57-4.42-3.79-5.86-6.68-1.43-2.89-2.15-6.23-2.15-10.03s.72-7.13,2.15-9.99Zm23.17,3.38c-1.57-1.63-3.47-2.45-5.73-2.45s-4.16.81-5.72,2.42c-1.57,1.61-2.35,3.83-2.35,6.65s.78,5.06,2.35,6.72c1.57,1.65,3.47,2.48,5.72,2.48s4.16-.82,5.73-2.45c1.57-1.63,2.35-3.86,2.35-6.68s-.78-5.05-2.35-6.69Z"/>
        <path class="cls-4" d="m452.95,2034.4c2.71,2.78,4.07,6.64,4.07,11.58v21.58h-11.25v-20.05c0-2.38-.63-4.22-1.89-5.53s-2.99-1.95-5.2-1.95-3.94.65-5.2,1.95c-1.26,1.3-1.89,3.14-1.89,5.53v20.05h-11.25v-20.05c0-2.38-.63-4.22-1.89-5.53s-2.99-1.95-5.2-1.95-3.94.65-5.2,1.95c-1.26,1.3-1.89,3.14-1.89,5.53v20.05h-11.32v-36.93h11.32v4.63c1.15-1.54,2.65-2.77,4.5-3.67,1.85-.9,3.95-1.36,6.29-1.36,2.78,0,5.26.6,7.45,1.79s3.89,2.89,5.13,5.1c1.28-2.03,3.02-3.68,5.23-4.96,2.21-1.28,4.61-1.92,7.21-1.92,4.59,0,8.24,1.39,10.95,4.17Z"/>
        <path class="cls-4" d="m480.85,2031.69c1.94-1.06,4.21-1.59,6.82-1.59,3.04,0,5.8.77,8.27,2.32,2.47,1.54,4.42,3.75,5.86,6.62s2.15,6.2,2.15,9.99-.72,7.14-2.15,10.03c-1.43,2.89-3.39,5.12-5.86,6.68-2.47,1.57-5.23,2.35-8.27,2.35-2.56,0-4.82-.53-6.78-1.59-1.96-1.06-3.5-2.43-4.6-4.1v22.77h-11.32v-54.54h11.32v5.23c1.1-1.72,2.62-3.11,4.57-4.17Zm9.23,10.69c-1.57-1.61-3.5-2.42-5.79-2.42s-4.16.82-5.73,2.45c-1.57,1.63-2.35,3.86-2.35,6.69s.78,5.05,2.35,6.68c1.57,1.63,3.47,2.45,5.73,2.45s4.17-.83,5.76-2.48c1.59-1.65,2.38-3.89,2.38-6.72s-.78-5.04-2.35-6.65Z"/>
        <path class="cls-4" d="m546.37,2030.63v36.93h-11.32v-5.03c-1.15,1.63-2.7,2.95-4.67,3.94-1.96.99-4.14,1.49-6.52,1.49-2.82,0-5.32-.63-7.48-1.89-2.16-1.26-3.84-3.08-5.03-5.46-1.19-2.38-1.79-5.18-1.79-8.41v-21.58h11.25v20.05c0,2.47.64,4.39,1.92,5.76,1.28,1.37,3,2.05,5.16,2.05s3.95-.68,5.23-2.05c1.28-1.37,1.92-3.29,1.92-5.76v-20.05h11.32Z"/>
        <path class="cls-4" d="m560.94,2066.43c-2.51-1.1-4.5-2.61-5.96-4.53-1.46-1.92-2.27-4.07-2.45-6.45h11.19c.13,1.28.73,2.32,1.79,3.11,1.06.79,2.36,1.19,3.91,1.19,1.41,0,2.5-.27,3.28-.83.77-.55,1.16-1.27,1.16-2.15,0-1.06-.55-1.84-1.66-2.35-1.1-.51-2.89-1.07-5.36-1.69-2.65-.62-4.85-1.27-6.62-1.95-1.77-.68-3.29-1.76-4.57-3.24-1.28-1.48-1.92-3.47-1.92-5.99,0-2.12.58-4.05,1.75-5.79,1.17-1.74,2.89-3.12,5.16-4.14,2.27-1.01,4.97-1.52,8.11-1.52,4.63,0,8.28,1.15,10.95,3.44,2.67,2.29,4.2,5.34,4.6,9.13h-10.46c-.18-1.28-.74-2.29-1.69-3.04-.95-.75-2.2-1.13-3.74-1.13-1.32,0-2.34.25-3.04.76-.71.51-1.06,1.2-1.06,2.08,0,1.06.56,1.85,1.69,2.38,1.12.53,2.88,1.06,5.26,1.59,2.74.71,4.96,1.4,6.69,2.08,1.72.68,3.23,1.79,4.53,3.31s1.97,3.56,2.02,6.12c0,2.16-.61,4.09-1.82,5.79-1.21,1.7-2.96,3.03-5.23,4s-4.91,1.46-7.91,1.46c-3.22,0-6.09-.55-8.6-1.65Z"/>
        <path class="cls-4" d="m606.54,2031.98c1.99-3.6,4.75-6.4,8.31-8.41s7.58-3.01,12.08-3.01c5.52,0,10.24,1.46,14.17,4.37,3.93,2.91,6.55,6.88,7.88,11.91h-12.44c-.93-1.94-2.24-3.42-3.94-4.43-1.7-1.01-3.63-1.52-5.79-1.52-3.49,0-6.31,1.21-8.47,3.64-2.16,2.43-3.24,5.67-3.24,9.73s1.08,7.3,3.24,9.73c2.16,2.43,4.99,3.64,8.47,3.64,2.16,0,4.09-.51,5.79-1.52,1.7-1.01,3.01-2.49,3.94-4.43h12.44c-1.32,5.03-3.95,8.99-7.88,11.88-3.93,2.89-8.65,4.33-14.17,4.33-4.5,0-8.53-1-12.08-3.01-3.55-2.01-6.32-4.8-8.31-8.37-1.99-3.57-2.98-7.65-2.98-12.24s.99-8.68,2.98-12.28Z"/>
        <path class="cls-4" d="m672.2,2031.98c1.99-1.17,4.19-1.75,6.62-1.75v11.98h-3.11c-2.82,0-4.94.61-6.35,1.82-1.41,1.21-2.12,3.34-2.12,6.39v17.14h-11.32v-36.93h11.32v6.16c1.32-2.03,2.98-3.63,4.96-4.8Z"/>
        <path class="cls-4" d="m684.14,2039.03c1.43-2.87,3.39-5.07,5.86-6.62,2.47-1.54,5.23-2.32,8.27-2.32,2.6,0,4.89.53,6.85,1.59,1.96,1.06,3.48,2.45,4.53,4.17v-5.23h11.32v36.93h-11.32v-5.23c-1.1,1.72-2.64,3.11-4.6,4.17-1.96,1.06-4.25,1.59-6.85,1.59-3,0-5.74-.78-8.21-2.35-2.47-1.57-4.42-3.79-5.86-6.68-1.43-2.89-2.15-6.23-2.15-10.03s.72-7.13,2.15-9.99Zm23.17,3.38c-1.57-1.63-3.47-2.45-5.73-2.45s-4.16.81-5.72,2.42c-1.57,1.61-2.35,3.83-2.35,6.65s.78,5.06,2.35,6.72c1.57,1.65,3.47,2.48,5.72,2.48s4.16-.82,5.73-2.45c1.57-1.63,2.35-3.86,2.35-6.68s-.78-5.05-2.35-6.69Z"/>
        <path class="cls-4" d="m745.79,2056.97l8.01-26.34h12.05l-13.11,36.93h-13.96l-13.11-36.93h12.11l8.01,26.34Z"/>
        <path class="cls-4" d="m805.23,2051.81h-25.61c.18,2.29.92,4.05,2.22,5.26,1.3,1.21,2.9,1.82,4.8,1.82,2.82,0,4.79-1.19,5.89-3.57h12.05c-.62,2.43-1.73,4.61-3.34,6.55-1.61,1.94-3.63,3.46-6.06,4.57-2.43,1.1-5.14,1.65-8.14,1.65-3.62,0-6.84-.77-9.66-2.32-2.82-1.54-5.03-3.75-6.62-6.62-1.59-2.87-2.38-6.22-2.38-10.06s.78-7.19,2.35-10.06c1.57-2.87,3.76-5.07,6.58-6.62,2.82-1.54,6.07-2.32,9.73-2.32s6.75.75,9.53,2.25c2.78,1.5,4.95,3.64,6.52,6.42,1.57,2.78,2.35,6.02,2.35,9.73,0,1.06-.07,2.16-.2,3.31Zm-11.38-6.29c0-1.94-.66-3.49-1.99-4.63-1.32-1.15-2.98-1.72-4.96-1.72s-3.5.55-4.8,1.66c-1.3,1.1-2.11,2.67-2.42,4.7h14.16Z"/>
        <path class="cls-4" d="m826.48,2031.98c1.99-3.6,4.75-6.4,8.31-8.41s7.58-3.01,12.08-3.01c5.52,0,10.24,1.46,14.17,4.37,3.93,2.91,6.55,6.88,7.88,11.91h-12.44c-.93-1.94-2.24-3.42-3.94-4.43-1.7-1.01-3.63-1.52-5.79-1.52-3.49,0-6.31,1.21-8.47,3.64-2.16,2.43-3.24,5.67-3.24,9.73s1.08,7.3,3.24,9.73c2.16,2.43,4.99,3.64,8.47,3.64,2.16,0,4.09-.51,5.79-1.52,1.7-1.01,3.01-2.49,3.94-4.43h12.44c-1.32,5.03-3.95,8.99-7.88,11.88-3.93,2.89-8.65,4.33-14.17,4.33-4.5,0-8.53-1-12.08-3.01-3.55-2.01-6.32-4.8-8.31-8.37-1.99-3.57-2.98-7.65-2.98-12.24s.99-8.68,2.98-12.28Z"/>
        <path class="cls-4" d="m882.9,2065.77c-2.89-1.54-5.16-3.75-6.82-6.62-1.65-2.87-2.48-6.22-2.48-10.06s.84-7.14,2.51-10.03c1.68-2.89,3.97-5.11,6.88-6.65,2.91-1.54,6.18-2.32,9.8-2.32s6.88.77,9.8,2.32c2.91,1.54,5.21,3.76,6.88,6.65,1.68,2.89,2.52,6.23,2.52,10.03s-.85,7.14-2.55,10.03c-1.7,2.89-4.02,5.11-6.95,6.65-2.94,1.54-6.21,2.32-9.83,2.32s-6.87-.77-9.76-2.32Zm15.29-9.86c1.52-1.59,2.28-3.86,2.28-6.82s-.74-5.23-2.22-6.82c-1.48-1.59-3.3-2.38-5.46-2.38s-4.04.78-5.49,2.35-2.18,3.85-2.18,6.85.72,5.23,2.15,6.82c1.43,1.59,3.23,2.38,5.39,2.38s4-.79,5.53-2.38Z"/>
        <path class="cls-4" d="m918.44,2066.33c-1.26-1.17-1.89-2.61-1.89-4.33s.63-3.24,1.89-4.43c1.26-1.19,2.88-1.79,4.86-1.79s3.54.6,4.8,1.79,1.89,2.67,1.89,4.43-.63,3.17-1.89,4.33c-1.26,1.17-2.86,1.75-4.8,1.75s-3.61-.58-4.86-1.75Z"/>
      </g>
    </g>
  </g>
</svg>