<?xml version="1.0" encoding="UTF-8"?>
<svg id="Design" xmlns="http://www.w3.org/2000/svg" viewBox="0 0 992.13 283.46">
  <defs>
    <style>
      .cls-1 {
        fill: #fff;
        stroke-width: 0px;
      }
    </style>
  </defs>
  <g>
    <path class="cls-1" d="m365.4,198.67c-1.19,6.8-3.41,12.78-6.48,17.92-2.94,4.91-6.66,9.02-11.06,12.34-9.02,6.79-20.77,10.17-34.14,10.17-14.62,0-27.62-4.68-36.92-14.12-4.57-4.64-8.23-10.42-10.74-17.27v-.02c-2.62-7.1-4.04-15.33-4.04-24.7,0-7.55,1.02-14.44,2.93-20.64,2.71-8.82,7.19-16.22,12.97-22.01,9.84-9.85,23.41-14.28,38.15-15.05,11.41-.61,26.17,4.69,33.3,10.74,2.77,12.65-9.64,21.03-16,24.29-.51-1.27-1.35-2.83-2.12-4.08-.89-1.43-1.88-2.66-2.97-3.68-3.31-3.13-7.53-4.55-12.79-4.55-6.37,0-11.61,2.48-15.46,7.83-3.6,5-5.96,12.65-6.24,23.13-.02.73-.03,1.48-.03,2.25,0,.46,0,.92,0,1.37l.03,1.12c0,.42.03.86.05,1.28.08,2.23.26,4.33.5,6.32,0,.03,0,.04,0,.07.94,7.48,2.97,13.1,5.7,17.05,3.86,5.55,8.99,7.95,15.27,7.95,4.92,0,9.03-1.5,12.33-4.5.41-.37.81-.76,1.18-1.18t.02-.03c2.01-2.21,3.65-5.07,4.83-8.66.09-.27.18-.55.28-.86.3-1.01.58-2.07.8-3.18.17-.85.91-1.45,1.77-1.45h27.09c1.12,0,1.98,1.02,1.78,2.14Z"/>
    <path class="cls-1" d="m201.76,148.01c5.26,0,9.47,1.42,12.79,4.54,3.31,3.12,5.8,8.08,7.03,15.4.14.87.9,1.52,1.78,1.52h26.72c1.07,0,1.9-.92,1.8-1.98-2-24.04-20.51-42.21-49.54-42.21-14.76,0-28.31,5.19-38.15,15.05-9.83,9.86-15.9,24.35-15.9,42.65s5.49,32.56,14.78,42c9.29,9.43,22.29,14.11,36.91,14.11,13.37,0,25.12-3.38,34.14-10.17,9.02-6.8,15.21-17.01,17.54-30.27.2-1.11-.65-2.14-1.78-2.14h-27.09c-.86,0-1.59.61-1.77,1.45-1.32,6.31-3.83,10.91-7.12,13.92-3.29,3.01-7.4,4.5-12.33,4.5-6.28,0-11.43-2.41-15.28-7.97-3.85-5.56-6.29-14.44-6.29-27.2,0-11.65,2.41-20.03,6.27-25.38,3.86-5.35,9.09-7.82,15.47-7.82Z"/>
    <path class="cls-1" d="m42.76,239.08l29.88-96.68,3.29-10.13c2.13-6.53,6.95-10.59,12.43-12.17.55-.17,1.12-.33,1.7-.45.62-.14,1.24-.23,1.87-.27.32-.03.63-.06.95-.07.32-.01.65-.03.96-.03s.65.01.96.03c.32.01.63.04.95.07.63.04,1.25.13,1.87.27.58.12,1.15.27,1.7.45,5.47,1.58,10.29,5.64,12.42,12.17l2.19,6.73.88,2.69.2.63,1.09,3.32.88,2.69,4.73,14.62c-5.8-6.93-13.91-4.72-15.54-4.29-6.62,1.78-18.31,18.34-18.31,18.34l-45.1,62.06Z"/>
    <path class="cls-1" d="m146.47,239.08l-3.81-4.99-24.49-32.11c-4.69-6.22-8.74-12.24-21.68-13.02-1.89-.11-11.04,2.61-11.97,2.79l2.82-3.7,3.84-5.04,5.97-7.83s6.88-8.6,12.88-9.37c8.36-1.07,13.13,2.59,16.41,12.53l3.57,10.1,16.46,50.63Z"/>
    <path class="cls-1" d="m338.46,185.33h-22.17l-7.9.06h-.03l-7.23-.06,2.54-1.47,9.42-5.44,13.68-7.9s27.21-13.5,27.99-29.31c2.72,3.45,5.66,7.52,7.19,11.43,7.91,20.2-8.45,32.75-23.49,32.69Z"/>
  </g>
  <g>
    <path class="cls-1" d="m455.19,212.56c-3.62-3.75-5.42-9.63-5.42-17.65v-23.93c0-8.02,1.81-13.91,5.42-17.65,3.61-3.75,8.68-5.62,15.21-5.62s11.42,1.81,14.94,5.42c3.52,3.62,5.29,9.08,5.29,16.4v1.85h-8.99v-1.85c0-9.17-3.7-13.75-11.11-13.75-3.88,0-6.81,1.24-8.79,3.7-1.98,2.47-2.98,6.66-2.98,12.56v21.82c0,5.91.99,10.1,2.98,12.56,1.98,2.47,4.87,3.7,8.66,3.7,7.49,0,11.24-4.58,11.24-13.75v-1.85h8.99v1.72c0,7.32-1.76,12.81-5.29,16.46-3.53,3.66-8.46,5.49-14.81,5.49s-11.73-1.87-15.34-5.62Z"/>
    <path class="cls-1" d="m540.22,148.76l-19.97,74.85c-1.32,5.11-3.57,8.71-6.74,10.78-3.17,2.07-7.54,3.11-13.09,3.11h-1.32v-8.07h2.25c3.44,0,6.08-.66,7.93-1.98,1.85-1.32,3.13-3.53,3.83-6.61l.53-2.12-18.51-69.95h9.79l12.96,52.23,12.56-52.23h9.79Z"/>
    <path class="cls-1" d="m554.36,210.91v6.21h-8.99v-91.24h8.99v29.49c3-5.11,7.32-7.67,12.96-7.67s9.85,1.92,13.16,5.75c3.31,3.83,4.96,9.68,4.96,17.52v23.93c0,7.85-1.65,13.69-4.96,17.52-3.31,3.83-7.65,5.75-13.03,5.75-5.73,0-10.1-2.42-13.09-7.27Zm19.37-4.56c1.81-2.51,2.71-6.68,2.71-12.5v-21.82c0-10.84-3.57-16.26-10.71-16.26-3.7,0-6.53,1.39-8.46,4.17-1.94,2.78-2.91,6.86-2.91,12.23v21.82c0,5.29.97,9.3,2.91,12.03,1.94,2.73,4.76,4.1,8.46,4.1s6.19-1.26,8-3.77Z"/>
    <path class="cls-1" d="m604.35,185.65v8.07c0,6,1.04,10.27,3.11,12.83,2.07,2.56,5,3.83,8.79,3.83,7.23,0,10.84-4.54,10.84-13.62v-.53h8.86v.4c0,7.14-1.74,12.52-5.22,16.13-3.48,3.62-8.4,5.42-14.74,5.42-13.75,0-20.63-8.11-20.63-24.33v-22.08c0-7.93,1.79-13.93,5.36-17.98,3.57-4.05,8.53-6.08,14.88-6.08s11.35,2.03,15.01,6.08c3.66,4.06,5.49,10.05,5.49,17.98v13.88h-31.74Zm2.91-26.12c-1.94,2.51-2.91,6.68-2.91,12.5v6.74h22.88v-7.01c0-5.73-.99-9.83-2.98-12.3-1.98-2.47-4.83-3.7-8.53-3.7s-6.52,1.26-8.46,3.77Z"/>
    <path class="cls-1" d="m647.19,148.76h8.73v6.74c1.5-2.64,3.48-4.61,5.95-5.88,2.47-1.28,5.24-1.92,8.33-1.92,1.85,0,3.48.18,4.89.53v8.73c-2.38-.79-4.58-1.19-6.61-1.19-3.62,0-6.57,1.15-8.86,3.44-2.29,2.29-3.44,5.42-3.44,9.39v48.53h-8.99v-68.37Z"/>
    <path class="cls-1" d="m703.98,211.43c-4.01-4.41-6.11-10.84-6.28-19.31h9.39c.26,6.17,1.65,10.6,4.17,13.29,2.51,2.69,6.1,4.03,10.78,4.03s8.31-1.34,10.65-4.03c2.33-2.69,3.5-6.81,3.5-12.36,0-4.85-1.04-8.51-3.11-10.98-2.07-2.47-5.8-4.8-11.17-7.01l-5.29-2.12c-6-2.38-10.49-5.42-13.49-9.12-3-3.7-4.5-8.68-4.5-14.94,0-7.41,2.09-13.31,6.28-17.72,4.19-4.41,9.94-6.61,17.26-6.61s12.47,2.05,16.53,6.15c4.05,4.1,6.26,10.25,6.61,18.45h-9.12c-.62-10.67-5.33-16-14.15-16-4.58,0-8.02,1.32-10.31,3.97-2.29,2.64-3.44,6.39-3.44,11.24,0,4.32,1.04,7.71,3.11,10.18,2.07,2.47,5.62,4.67,10.65,6.61l5.42,2.12c6.08,2.38,10.67,5.51,13.75,9.39,3.08,3.88,4.63,9.3,4.63,16.26,0,8.02-2.07,14.22-6.22,18.58-4.14,4.36-10.14,6.55-17.98,6.55s-13.64-2.2-17.65-6.61Z"/>
    <path class="cls-1" d="m755.09,148.76h8.99v6.61c3-5.11,7.32-7.67,12.96-7.67s9.85,1.92,13.16,5.75c3.31,3.83,4.96,9.68,4.96,17.52v23.93c0,7.85-1.65,13.69-4.96,17.52-3.31,3.83-7.65,5.75-13.03,5.75-5.73,0-10.1-2.38-13.09-7.14v26.18h-8.99v-88.47Zm28.36,57.59c1.81-2.51,2.71-6.68,2.71-12.5v-21.82c0-10.84-3.57-16.26-10.71-16.26-3.7,0-6.53,1.39-8.46,4.17-1.94,2.78-2.91,6.86-2.91,12.23v21.82c0,5.29.97,9.3,2.91,12.03,1.94,2.73,4.76,4.1,8.46,4.1s6.19-1.26,8-3.77Z"/>
    <path class="cls-1" d="m838.66,152.92c3.35,3.48,5.03,8.35,5.03,14.61v49.59h-8.6v-6.35c-3.09,4.94-7.71,7.41-13.88,7.41-5.64,0-9.96-1.79-12.96-5.36-3-3.57-4.5-8.57-4.5-15.01s1.74-11,5.22-14.48,8.53-5.22,15.14-5.22h10.58v-10.98c0-7.67-3.53-11.5-10.58-11.5-3.26,0-5.77.88-7.54,2.65-1.76,1.76-2.64,4.23-2.64,7.4v1.06h-8.46v-1.19c0-5.55,1.7-9.92,5.09-13.09,3.39-3.17,7.91-4.76,13.55-4.76,6.35,0,11.19,1.74,14.55,5.22Zm-6.94,54.08c1.98-2.25,2.98-5.4,2.98-9.46v-12.69h-9.65c-8.2,0-12.3,4.28-12.3,12.83s3.52,12.69,10.58,12.69c3.61,0,6.41-1.12,8.4-3.37Z"/>
    <path class="cls-1" d="m860.22,212.56c-3.62-3.75-5.42-9.63-5.42-17.65v-23.93c0-8.02,1.81-13.91,5.42-17.65,3.61-3.75,8.68-5.62,15.21-5.62s11.42,1.81,14.94,5.42c3.52,3.62,5.29,9.08,5.29,16.4v1.85h-8.99v-1.85c0-9.17-3.7-13.75-11.11-13.75-3.88,0-6.81,1.24-8.79,3.7-1.98,2.47-2.98,6.66-2.98,12.56v21.82c0,5.91.99,10.1,2.98,12.56,1.98,2.47,4.87,3.7,8.66,3.7,7.49,0,11.24-4.58,11.24-13.75v-1.85h8.99v1.72c0,7.32-1.76,12.81-5.29,16.46-3.53,3.66-8.46,5.49-14.81,5.49s-11.73-1.87-15.34-5.62Z"/>
    <path class="cls-1" d="m914.56,185.65v8.07c0,6,1.04,10.27,3.11,12.83,2.07,2.56,5,3.83,8.79,3.83,7.23,0,10.84-4.54,10.84-13.62v-.53h8.86v.4c0,7.14-1.74,12.52-5.22,16.13-3.48,3.62-8.4,5.42-14.75,5.42-13.75,0-20.63-8.11-20.63-24.33v-22.08c0-7.93,1.79-13.93,5.36-17.98,3.57-4.05,8.53-6.08,14.88-6.08s11.35,2.03,15.01,6.08c3.66,4.06,5.49,10.05,5.49,17.98v13.88h-31.74Zm2.91-26.12c-1.94,2.51-2.91,6.68-2.91,12.5v6.74h22.88v-7.01c0-5.73-.99-9.83-2.97-12.3-1.98-2.47-4.83-3.7-8.53-3.7s-6.53,1.26-8.46,3.77Z"/>
  </g>
  <g>
    <g>
      <path class="cls-1" d="m455.5,83.7l-23.42-23.42c-4.45-4.45-4.45-11.66,0-16.11,2.23-2.22,5.14-3.34,8.05-3.34s5.83,1.11,8.05,3.34l7.45,7.45c2.78,2.78,4.65,6.33,5.37,10.19l.04.24c.19.99.32,2,.4,2.99.57,6.85-1.44,13.13-5.96,18.66Z"/>
      <path class="cls-1" d="m476.94,100.46h0s-.02.02-.03.03l-1.53,1.58-.74.77-26.45,26.45c-4.45,4.45-11.66,4.45-16.11,0-2.22-2.22-3.34-5.14-3.34-8.05s1.11-5.83,3.34-8.05l24.86-24.86c2.09-2.09,3.91-4.44,5.32-7.03,3-5.52,3.9-11.21,3.46-16.6-.1-1.16-.25-2.3-.46-3.42l1.19,1.19,4.5,4.48,5.69,5.67c7.4,7.78,7.5,19.96.3,27.86Z"/>
    </g>
    <g>
      <path class="cls-1" d="m386.65,89.77l23.42,23.42c4.45,4.45,4.45,11.66,0,16.11-2.23,2.22-5.14,3.34-8.05,3.34s-5.83-1.11-8.05-3.34l-7.45-7.45c-2.78-2.78-4.65-6.33-5.37-10.19l-.04-.24c-.19-.99-.32-2-.4-2.99-.57-6.85,1.44-13.13,5.96-18.66Z"/>
      <path class="cls-1" d="m365.2,73.01h0s.02-.02.03-.03l1.53-1.58.74-.77,26.45-26.45c4.45-4.45,11.66-4.45,16.11,0,2.22,2.22,3.34,5.14,3.34,8.05s-1.11,5.83-3.34,8.05l-24.86,24.86c-2.09,2.09-3.91,4.44-5.32,7.03-3,5.52-3.9,11.21-3.46,16.6.1,1.16.25,2.3.46,3.42l-1.19-1.19-4.5-4.48-5.69-5.67c-7.4-7.78-7.5-19.96-.3-27.86Z"/>
    </g>
  </g>
</svg>