<?xml version="1.0" encoding="UTF-8"?>
<svg id="Design" xmlns="http://www.w3.org/2000/svg" viewBox="0 0 566.93 566.93">
  <defs>
    <style>
      .cls-1 {
        fill: #fff;
        stroke-width: 0px;
      }
    </style>
  </defs>
  <g>
    <path class="cls-1" d="m168.43,389.9c9.94,14.38,21.43,26.65,34.24,37.09,15.98,13.02,33.3,22.39,51.95,28.05,12.42,3.77,25.01,5.77,37.83,5.95,13.26.19,26.35-1.22,39.28-4.76,12.85-3.51,25.2-8.75,37.01-15.88.73-.44,1.48-.84,2.22-1.24.13-.07.28-.06.54-.1,2.34,2.13,4.19,4.96,5.95,7.85,4.66,7.65,7.71,16.26,9.37,25.51.98,5.45,1.38,11.05,2.08,16.57.8,6.26,1.94,12.39,4.45,18.05,3.64,8.25,9.11,13.15,16.88,13.85,4.2.38,7.84-1.69,11.25-4.33,7.4-5.73,11.68-13.98,12.65-24.57.57-6.23-.05-12.44-1.44-18.49-5.62-24.56-18.23-41.43-37.67-50.78-.28-.13-.55-.27-.82-.42-.05-.03-.09-.11-.31-.4,10.11-9.07,19.23-19.45,27.55-30.86-.02-.42-.03-.85-.05-1.27-2.92,2.46-5.84,4.92-8.77,7.37-11.58,9.69-23.87,17.76-36.82,24.39-16.13,8.25-32.86,13.89-50.17,16.97-15.01,2.68-30.09,3.29-45.23,2.02-19.19-1.61-37.82-6.4-55.91-14.32-14.13-6.19-27.59-14.07-40.23-23.96-4.97-3.89-9.73-8.19-14.59-12.3-.11-.1-.28-.1-.43-.14-.27.06-.55.11-.82.17Zm239.46,82.45c-4.02-17.61-10.85-32.73-25.05-41.54.99-.79,1.84-1.46,2.68-2.14.92-.74,1.83-1.49,2.82-2.3,13.51,11.01,18.99,26.9,19.55,45.97Z"/>
    <path class="cls-1" d="m444.46,378.84c1.07.14,2.15.33,3.22.42,8.68.74,17.32.7,25.83-1.91,3.9-1.2,7.62-2.96,10.91-5.85,2.25-1.98,4.14-4.37,5.52-7.32,2.72-5.81,2.59-11.65-.46-17.12-2.95-5.28-7.25-7.69-12.49-6.74-5.49.99-9.12,4.92-10.72,11.42-1.68,6.83-5.24,12.05-9.44,16.73-3.02,3.37-6.45,6.06-10.08,8.35-.78.49-1.56.98-2.34,1.47.01.18.03.36.04.55Zm30.29-18.5c1.75-2.32,3.07-4.75,3.32-7.87.03-.34.2-.68.35-.99.79-1.65,2.45-2.3,3.84-1.53,1.44.8,2.25,3.03,1.48,4.74-.55,1.21-1.38,2.36-2.31,3.15-1.97,1.66-4.26,2.34-6.68,2.49Z"/>
    <path class="cls-1" d="m437.58,410.06c4.51,2.63,7.74,6.85,10.57,11.65,2.73,4.63,7.66,6.12,11.9,3.8,4.12-2.26,6.45-7.8,5.53-13.15-.97-5.67-4.72-9.64-9.43-9.54-6.5.14-12.53,2.43-18.08,6.56-.17.13-.28.38-.49.68Zm20.49-2.27c1.98.42,3.68,1.66,4.38,3.2.63,1.38.5,2.95-.34,4-.78.98-2.07,1.25-3.08.64-1-.6-1.6-1.95-1.46-3.37.15-1.5.33-2.99.49-4.48Z"/>
  </g>
  <g>
    <path class="cls-1" d="m368.9,315.06c-.71,3.55-2.3,6.97-4.79,9.93-25.01,29.72-53.25,35.97-72.53,35.97-13.33,0-26.53-3.02-38.19-8.72-33.79-16.55-51.29-51.86-43.55-87.85.38-1.8.81-3.58,1.25-5.31-3.4,2.29-7.44,3.66-11.74,3.81-.08,0-.55.02-.71.02-8.83,0-16.87-5.15-20.5-13.13l-6.48-14.25c-.44-.97-1.36-1.49-2-1.49-2.94.14-5.86.22-8.71.23-3.42,13.22-5.13,27.33-5.13,42.31,0,27.79,5.75,52.46,17.26,74.02,11.52,21.57,27.84,38.38,49.02,50.41,21.16,12.04,45.51,18.06,73.03,18.06,34.93,0,64.3-9.32,88.11-27.98,23.81-18.66,39.15-43.99,46.03-76.01h-60.4Zm14.37-152.61c-17.7-13.86-38.46-22.57-62.28-26.13-2.49,4.27-5.39,8.35-8.64,12.16l-12.05,14.11c-2.69,3.17-3.38,7.55-1.8,11.46,2.64,6.46,5.46,12.75,8.43,18.78,25.8,4.12,50.23,18.55,60.24,36.21,1.75,3.09,3.08,6.24,3.97,9.41h58.17c-6.88-32.01-22.23-57.35-46.03-76.01Z"/>
    <path class="cls-1" d="m291.58,345.74c-11.75,0-22.64-2.84-31.49-7.18-27.39-13.42-41.61-41.95-35.36-70.98,9.92-46.15,39.46-57.34,56.19-59.9.14-.02.28-.04.43-.06-4.04-8.03-7.51-15.76-10.22-22.4-5.78-14.18-3.22-30.2,6.69-41.81l12.05-14.11c5.42-6.35,9.29-13.76,11.18-21.44,2.57-10.45.15-23.57-6.18-33.43-4.34-6.77-9.88-11.1-15.6-12.18-23.78-4.53-41.84-.82-52.69,10.73,13.54,16.01,21.24,36.13,17.85,50.13-2.09,8.62-8.33,14.35-17.11,15.71-7.37,1.13-14.35-2.59-19.17-10.23-8.05-12.76-9.81-35.53-.06-54.08-1.58-1.39-3.22-2.71-4.92-3.95-11.54-8.38-29.68-15.67-50.63-2.78-14.94,9.2-18.88,23.01-18.78,35.21,22.84,3.66,46.45,18.32,55.36,35.61,5.28,10.24,4.79,20.46-1.4,28.77-5.83,7.84-14.15,10.9-23.43,8.6-18.83-4.66-38.4-31.57-43.56-59.45-12.1.65-20.64,6.16-25.38,16.39-8.18,17.67-8.01,33.68.51,46.3,11.83,17.53,38.87,27,72.31,25.31,12.8-.63,25.03,6.91,30.43,18.79l.04.08c11.73-20.45,30.48-34.64,55.94-42.27,3.79-1.15,7.79,1.01,8.93,4.81,1.14,3.79-1.02,7.79-4.81,8.93-26.98,8.09-44.45,23.84-53.41,48.16-1.01,2.73-3.56,4.58-6.46,4.69-2.88.06-5.59-1.55-6.79-4.2l-6.48-14.26c-2.99-6.57-9.65-10.74-16.66-10.4-39.08,1.95-70.03-9.56-84.92-31.61-11.31-16.76-11.89-38.19-1.63-60.34,6.88-14.87,19.98-23.55,37.06-24.65.07-20.08,8.93-36.39,25.62-46.67,21.61-13.3,45.26-12.1,66.57,3.39,1.68,1.22,3.32,2.51,4.91,3.87,10.15-10.49,29.73-21.46,65.46-14.66,9.62,1.83,18.49,8.41,24.99,18.53,8.48,13.22,11.56,30.31,8.03,44.61-2.42,9.83-7.33,19.28-14.2,27.32l-12.05,14.11c-6.41,7.51-8.06,17.88-4.32,27.08,4.03,9.87,8.31,18.99,12.67,27.22,25.22,1.65,48.7,15.15,56.85,29.53,5.01,8.83,4.49,17.99-1.42,25.13-4.69,5.67-11.06,8.22-17.93,7.16-15.97-2.45-32.81-24.42-45.94-47.56-1.85.1-3.7.29-5.55.58-22.91,3.51-38.24,20.36-44.34,48.74-4.91,22.83,5.95,44.46,27.65,55.09,19.11,9.36,50.24,9.81,75.09-19.73,2.55-3.03,7.07-3.42,10.1-.87,3.03,2.55,3.42,7.07.87,10.1-18.93,22.5-41.12,30.55-60.89,30.55Zm14.51-123.06c12.1,19.25,23.7,30.91,30.65,31.97,1.57.25,2.97-.03,4.71-2.13.9-1.08,2.99-3.62,0-8.91-4.55-8.03-18.54-17.35-35.35-20.94Zm-170.41-104.77c5.39,22.11,20.8,41.34,32.04,44.12,3.6.89,6.12-.08,8.47-3.24,1.05-1.41,4.25-5.71.16-13.64-5.75-11.15-22.71-23.13-40.67-27.24Zm82.92-31.93c-4.96,13.31-2.78,27.91,1.65,34.94.77,1.22,2.77,4.03,4.85,3.71,3.08-.48,4.63-1.9,5.36-4.91,1.9-7.86-2.76-21.52-11.87-33.74Z"/>
  </g>
</svg>