<?xml version="1.0" encoding="UTF-8"?>
<svg id="Design" xmlns="http://www.w3.org/2000/svg" viewBox="0 0 566.93 566.93">
  <defs>
    <style>
      .cls-1 {
        fill: #2a4400;
        stroke-width: 0px;
      }
    </style>
  </defs>
  <g>
    <path class="cls-1" d="m190.35,307.12c7.08,10.23,15.25,18.97,24.37,26.4,11.37,9.26,23.7,15.93,36.97,19.96,8.84,2.68,17.8,4.11,26.92,4.24,9.43.14,18.75-.87,27.96-3.38,9.14-2.5,17.93-6.23,26.33-11.3.52-.31,1.05-.6,1.58-.88.09-.05.2-.04.38-.07,1.67,1.51,2.98,3.53,4.23,5.58,3.31,5.44,5.48,11.57,6.67,18.15.7,3.88.98,7.86,1.48,11.79.57,4.46,1.38,8.82,3.16,12.84,2.59,5.87,6.48,9.36,12.01,9.86,2.99.27,5.58-1.2,8.01-3.08,5.27-4.08,8.32-9.95,9-17.48.4-4.43-.04-8.85-1.02-13.16-4-17.48-12.97-29.48-26.81-36.13-.2-.09-.39-.19-.58-.3-.04-.02-.06-.08-.22-.29,7.2-6.45,13.68-13.84,19.61-21.96-.01-.3-.02-.6-.04-.9-2.08,1.75-4.16,3.5-6.24,5.24-8.24,6.9-16.99,12.64-26.2,17.35-11.48,5.87-23.39,9.88-35.7,12.08-10.68,1.9-21.41,2.34-32.19,1.44-13.65-1.15-26.91-4.55-39.79-10.19-10.05-4.4-19.64-10.01-28.63-17.05-3.54-2.77-6.92-5.83-10.38-8.75-.08-.07-.2-.07-.3-.1-.2.04-.39.08-.59.12Zm170.41,58.68c-2.86-12.54-7.72-23.29-17.83-29.56.7-.56,1.31-1.04,1.91-1.52.65-.53,1.3-1.06,2.01-1.63,9.62,7.83,13.51,19.14,13.91,32.72Z"/>
    <path class="cls-1" d="m386.79,299.25c.76.1,1.53.24,2.29.3,6.18.53,12.33.5,18.38-1.36,2.78-.85,5.42-2.1,7.77-4.16,1.6-1.41,2.95-3.11,3.93-5.21,1.94-4.14,1.84-8.29-.33-12.18-2.1-3.76-5.16-5.47-8.89-4.79-3.91.71-6.49,3.5-7.63,8.13-1.2,4.86-3.73,8.58-6.72,11.9-2.15,2.39-4.59,4.31-7.17,5.94-.56.35-1.11.7-1.67,1.04,0,.13.02.26.03.39Zm21.56-13.17c1.25-1.65,2.18-3.38,2.37-5.6.02-.24.14-.48.25-.7.56-1.17,1.74-1.64,2.73-1.09,1.03.57,1.6,2.15,1.05,3.38-.39.86-.98,1.68-1.64,2.24-1.4,1.18-3.03,1.67-4.75,1.77Z"/>
    <path class="cls-1" d="m381.89,321.47c3.21,1.87,5.51,4.88,7.52,8.29,1.94,3.29,5.45,4.36,8.47,2.7,2.93-1.61,4.59-5.55,3.94-9.36-.69-4.03-3.36-6.86-6.71-6.79-4.62.1-8.92,1.73-12.86,4.67-.12.09-.2.27-.35.48Zm14.58-1.62c1.41.3,2.62,1.18,3.12,2.28.45.98.35,2.1-.24,2.85-.55.7-1.47.89-2.19.46-.71-.43-1.14-1.38-1.04-2.4.1-1.07.23-2.13.35-3.19Z"/>
  </g>
  <g>
    <path class="cls-1" d="m333.01,253.86c-.5,2.53-1.64,4.96-3.41,7.07-17.8,21.15-37.89,25.6-51.61,25.6-9.49,0-18.88-2.15-27.18-6.21-24.04-11.78-36.5-36.9-30.99-62.52.27-1.28.57-2.55.89-3.78-2.42,1.63-5.29,2.6-8.35,2.71-.06,0-.39.01-.5.01-6.28,0-12.01-3.67-14.59-9.35l-4.61-10.14c-.31-.69-.97-1.06-1.43-1.06-2.09.1-4.17.16-6.2.17-2.43,9.4-3.65,19.45-3.65,30.11,0,19.78,4.09,37.33,12.28,52.68,8.19,15.35,19.81,27.31,34.89,35.87,15.06,8.57,32.38,12.85,51.97,12.85,24.86,0,45.75-6.63,62.7-19.91,16.94-13.28,27.86-31.3,32.76-54.09h-42.99Zm10.23-108.6c-12.59-9.86-27.37-16.06-44.32-18.59-1.77,3.04-3.83,5.94-6.15,8.65l-8.58,10.04c-1.92,2.25-2.41,5.37-1.28,8.16,1.88,4.6,3.88,9.07,6,13.36,18.36,2.94,35.75,13.2,42.87,25.77,1.25,2.2,2.19,4.44,2.83,6.7h41.39c-4.9-22.78-15.82-40.81-32.76-54.09Z"/>
    <path class="cls-1" d="m277.99,275.7c-8.36,0-16.11-2.02-22.41-5.11-19.49-9.55-29.61-29.85-25.17-50.51,7.06-32.84,28.08-40.81,39.99-42.63.1-.02.2-.03.3-.05-2.87-5.71-5.34-11.22-7.27-15.94-4.11-10.09-2.29-21.49,4.76-29.75l8.57-10.04c3.86-4.52,6.61-9.8,7.96-15.26,1.83-7.43.1-16.77-4.4-23.79-3.09-4.82-7.03-7.9-11.1-8.67-16.92-3.22-29.78-.58-37.5,7.64,9.63,11.39,15.11,25.71,12.7,35.67-1.49,6.14-5.93,10.21-12.18,11.18-5.25.81-10.21-1.84-13.64-7.28-5.73-9.08-6.98-25.29-.04-38.49-1.12-.99-2.29-1.93-3.5-2.81-8.21-5.96-21.12-11.15-36.03-1.98-10.63,6.54-13.43,16.37-13.37,25.06,16.25,2.6,33.05,13.04,39.4,25.34,3.76,7.29,3.41,14.56-.99,20.47-4.15,5.58-10.07,7.76-16.67,6.12-13.4-3.31-27.33-22.46-31-42.31-8.61.46-14.69,4.38-18.06,11.66-5.82,12.58-5.7,23.97.36,32.95,8.42,12.47,27.66,19.21,51.46,18.01,9.11-.45,17.81,4.92,21.66,13.37l.03.06c8.34-14.56,21.69-24.65,39.81-30.08,2.69-.82,5.54.72,6.35,3.42.81,2.7-.72,5.54-3.42,6.35-19.2,5.76-31.63,16.97-38.01,34.27-.72,1.94-2.53,3.26-4.6,3.33-2.05.04-3.98-1.1-4.83-2.99l-4.61-10.15c-2.13-4.68-6.87-7.64-11.85-7.4-27.81,1.39-49.84-6.8-60.43-22.49-8.05-11.93-8.46-27.18-1.16-42.94,4.9-10.58,14.22-16.76,26.37-17.54.05-14.29,6.35-25.9,18.23-33.21,15.38-9.46,32.21-8.61,47.38,2.42,1.19.87,2.36,1.79,3.49,2.76,7.23-7.46,21.16-15.27,46.58-10.43,6.85,1.3,13.16,5.99,17.78,13.18,6.03,9.41,8.23,21.57,5.72,31.75-1.72,7-5.22,13.72-10.1,19.44l-8.57,10.04c-4.56,5.34-5.74,12.73-3.07,19.27,2.87,7.02,5.92,13.51,9.02,19.37,17.95,1.17,34.66,10.78,40.46,21.01,3.56,6.28,3.19,12.8-1.01,17.88-3.34,4.03-7.87,5.85-12.76,5.09-11.36-1.74-23.35-17.38-32.69-33.84-1.31.07-2.63.21-3.95.41-16.3,2.5-27.21,14.49-31.55,34.69-3.49,16.25,4.23,31.64,19.68,39.2,13.6,6.66,35.75,6.98,53.44-14.04,1.81-2.16,5.03-2.44,7.19-.62,2.16,1.81,2.43,5.03.62,7.19-13.47,16.01-29.26,21.74-43.33,21.74Zm10.33-87.57c8.61,13.7,16.86,21.99,21.81,22.75,1.12.18,2.11-.02,3.35-1.51.64-.77,2.13-2.57,0-6.34-3.24-5.71-13.19-12.35-25.16-14.9Zm-121.27-74.56c3.84,15.73,14.81,29.42,22.8,31.39,2.56.63,4.36-.06,6.03-2.31.75-1,3.02-4.06.11-9.7-4.09-7.94-16.16-16.46-28.95-19.38Zm59.01-22.72c-3.53,9.47-1.98,19.86,1.18,24.86.55.87,1.97,2.87,3.45,2.64,2.19-.34,3.3-1.35,3.82-3.49,1.35-5.6-1.96-15.31-8.45-24.01Z"/>
  </g>
  <g>
    <path class="cls-1" d="m77.13,412.79c-1.41.89-3.05,1.33-4.9,1.33-2.87,0-5.15-1.02-6.86-3.07-1.71-2.04-2.56-4.79-2.56-8.25s.85-6.14,2.56-8.19c1.71-2.04,3.99-3.07,6.86-3.07,1.85,0,3.49.45,4.9,1.33,1.41.89,2.52,2.17,3.32,3.86h13.34c-1.09-5.1-3.54-9.14-7.33-12.11-3.8-2.97-8.48-4.46-14.04-4.46-4.39,0-8.26.96-11.64,2.88-3.37,1.92-5.97,4.59-7.81,8.03-1.83,3.44-2.75,7.35-2.75,11.73s.92,8.36,2.75,11.79c1.84,3.44,4.44,6.12,7.81,8.03,3.38,1.92,7.25,2.88,11.64,2.88,5.56,0,10.24-1.48,14.04-4.46,3.79-2.97,6.24-7,7.33-12.11h-13.34c-.8,1.69-1.91,2.98-3.32,3.86Z"/>
    <path class="cls-1" d="m123.2,389.71v4.93c-.97-1.64-2.34-2.95-4.11-3.92-1.77-.97-3.88-1.45-6.33-1.45-2.82,0-5.38.74-7.68,2.21-2.3,1.48-4.11,3.59-5.44,6.32-1.33,2.75-1.99,5.95-1.99,9.62s.66,6.88,1.99,9.64c1.33,2.76,3.14,4.88,5.44,6.36,2.3,1.47,4.86,2.21,7.68,2.21,2.41,0,4.5-.48,6.3-1.46,1.79-.97,3.17-2.27,4.14-3.92v4.94h12.39v-35.48h-12.39Zm-1.87,23.15c-1.24,1.3-2.77,1.96-4.58,1.96s-3.4-.67-4.62-2c-1.22-1.32-1.83-3.13-1.83-5.4s.61-4.12,1.83-5.41c1.22-1.29,2.76-1.93,4.62-1.93s3.34.66,4.58,1.96c1.25,1.31,1.87,3.1,1.87,5.38s-.62,4.13-1.87,5.44Z"/>
    <path class="cls-1" d="m199.56,393.44c-2.56-2.7-6.06-4.05-10.53-4.05-2.49,0-4.77.61-6.83,1.81-2.07,1.2-3.73,2.77-5,4.71-1.18-2.07-2.79-3.67-4.84-4.81-2.04-1.14-4.37-1.71-6.98-1.71-2.28,0-4.29.46-6.04,1.36-1.75.91-3.18,2.12-4.27,3.64v-4.68h-12.4v35.48h12.4v-19.04c0-1.9.53-3.37,1.58-4.42,1.05-1.06,2.51-1.59,4.36-1.59s3.24.53,4.27,1.59c1.03,1.05,1.55,2.52,1.55,4.42v19.04h12.4v-19.04c0-1.9.52-3.37,1.58-4.42,1.05-1.06,2.48-1.59,4.3-1.59s3.24.53,4.3,1.59c1.05,1.05,1.58,2.52,1.58,4.42v19.04h12.39v-20.68c0-4.68-1.27-8.37-3.82-11.07Z"/>
    <path class="cls-1" d="m246.03,397.8c-1.32-2.73-3.14-4.84-5.43-6.32-2.3-1.47-4.86-2.21-7.69-2.21-2.4,0-4.49.48-6.26,1.45-1.77.97-3.14,2.28-4.11,3.92v-4.93h-12.39v52.42h12.39v-21.88c1.01,1.65,2.39,2.95,4.14,3.92,1.75.98,3.83,1.46,6.23,1.46,2.83,0,5.39-.74,7.69-2.21,2.29-1.48,4.11-3.6,5.43-6.36,1.33-2.76,2-5.98,2-9.64s-.67-6.87-2-9.62Zm-12.45,15.02c-1.25,1.33-2.78,2-4.59,2s-3.34-.66-4.58-1.96c-1.25-1.31-1.87-3.12-1.87-5.44s.62-4.07,1.87-5.38c1.24-1.3,2.77-1.96,4.58-1.96s3.34.64,4.59,1.93c1.24,1.29,1.86,3.09,1.86,5.41s-.62,4.08-1.86,5.4Z"/>
    <path class="cls-1" d="m276.99,389.71v19.03c0,2.03-.53,3.62-1.58,4.78-1.06,1.16-2.49,1.74-4.3,1.74s-3.2-.58-4.27-1.74c-1.08-1.16-1.61-2.75-1.61-4.78v-19.03h-12.34v20.62c0,4.68,1.2,8.37,3.58,11.09,2.38,2.72,5.64,4.08,9.77,4.08,2.4,0,4.53-.49,6.38-1.48,1.86-.99,3.31-2.29,4.37-3.89v5.06h12.46v-35.48h-12.46Z"/>
    <path class="cls-1" d="m324.45,408.65c-1.29-1.5-2.79-2.58-4.49-3.26-1.71-.67-3.85-1.28-6.42-1.83-2.15-.46-3.71-.92-4.68-1.36-.97-.44-1.46-1.08-1.46-1.93,0-.67.27-1.2.79-1.58.53-.38,1.3-.57,2.31-.57,1.31,0,2.35.31,3.13.92.78.61,1.28,1.48,1.49,2.62h11.19c-.42-3.71-1.96-6.7-4.61-8.98-2.66-2.27-6.31-3.41-10.94-3.41-3.13,0-5.79.5-8,1.52-2.22,1.01-3.89,2.37-5.03,4.07-1.14,1.71-1.71,3.62-1.71,5.73,0,2.44.62,4.38,1.87,5.82,1.24,1.43,2.7,2.46,4.39,3.09,1.69.64,3.8,1.2,6.33,1.71,2.23.51,3.83.97,4.8,1.39.97.42,1.46,1.08,1.46,1.96,0,.68-.3,1.23-.89,1.65-.59.42-1.39.63-2.4.63-1.31,0-2.41-.32-3.29-.95-.89-.63-1.41-1.52-1.58-2.66h-12.02c.17,2.37.98,4.48,2.44,6.36,1.45,1.88,3.43,3.35,5.94,4.43,2.51,1.07,5.37,1.61,8.57,1.61,2.99,0,5.6-.47,7.81-1.42,2.21-.95,3.92-2.25,5.12-3.89,1.2-1.65,1.8-3.5,1.8-5.57,0-2.57-.64-4.6-1.92-6.1Z"/>
    <path class="cls-1" d="m367.16,412.35c-1.22,2.66-2.98,4.69-5.28,6.1-2.3,1.42-5.05,2.12-8.25,2.12s-5.84-.72-8.28-2.15c-2.45-1.43-4.37-3.47-5.76-6.1-1.39-2.64-2.09-5.7-2.09-9.2s.7-6.63,2.09-9.27c.55-1.04,1.19-2,1.91-2.85-.68-1.96-1.2-3.9-1.6-5.79-2.16,1.69-3.96,3.8-5.37,6.3-1.94,3.44-2.91,7.31-2.91,11.61s.97,8.15,2.91,11.57c1.94,3.41,4.59,6.08,7.94,8,3.35,1.92,7.07,2.88,11.16,2.88,4.81,0,9-1.15,12.58-3.45,3.59-2.3,6.2-5.55,7.84-9.77h-6.89Z"/>
    <path class="cls-1" d="m392.68,391.54c-1.88,1.1-3.32,2.64-4.33,4.62v-5.63h-2.74c-.81,2.09-1.82,4.06-3.02,5.89v28.77h5.76v-18.85c0-7,3.22-10.5,9.67-10.5h1.52v-5.94c-2.7,0-4.99.55-6.86,1.64Z"/>
    <path class="cls-1" d="m433.37,390.53v6.33c-1.1-1.98-2.76-3.63-5-4.94-2.23-1.3-4.87-1.96-7.9-1.96s-5.87.74-8.38,2.22c-2.51,1.47-4.48,3.55-5.91,6.23-1.44,2.67-2.15,5.78-2.15,9.32s.71,6.62,2.15,9.36c1.43,2.74,3.39,4.87,5.88,6.39s5.27,2.28,8.35,2.28,5.61-.67,7.87-2c2.25-1.32,3.95-3,5.09-5.02v6.45h5.82v-34.66h-5.82Zm-1.58,24.13c-1.06,1.96-2.48,3.46-4.27,4.49-1.79,1.03-3.76,1.55-5.91,1.55s-4.11-.52-5.88-1.55c-1.77-1.03-3.19-2.53-4.24-4.49-1.05-1.96-1.58-4.27-1.58-6.93s.53-4.89,1.58-6.83c1.05-1.94,2.47-3.41,4.24-4.42,1.77-1.01,3.73-1.52,5.88-1.52s4.12.52,5.91,1.55c1.79,1.03,3.21,2.52,4.27,4.46,1.05,1.94,1.58,4.21,1.58,6.83s-.53,4.9-1.58,6.86Z"/>
    <path class="cls-1" d="m472.58,390.53l-10.75,29.34-10.82-29.34h-6.2l13.6,34.66h6.7l13.6-34.66h-6.13Z"/>
    <path class="cls-1" d="m516.02,406.53c0-3.16-.69-5.99-2.06-8.5-1.37-2.51-3.32-4.48-5.85-5.92-2.53-1.43-5.44-2.15-8.72-2.15s-6.36.73-8.95,2.19c-2.59,1.45-4.61,3.53-6.04,6.22-1.43,2.7-2.15,5.84-2.15,9.43s.74,6.73,2.21,9.45c1.48,2.72,3.51,4.82,6.1,6.29,2.6,1.48,5.54,2.22,8.83,2.22,4.13,0,7.59-1.05,10.37-3.14,2.78-2.08,4.63-4.79,5.56-8.12h-6.2c-.67,1.94-1.84,3.49-3.5,4.65-1.67,1.16-3.75,1.74-6.23,1.74-3.04,0-5.62-.96-7.75-2.88s-3.3-4.59-3.51-8h27.7c.12-1.22.19-2.38.19-3.48Zm-27.83-1.2c.3-3.29,1.47-5.86,3.51-7.71,2.05-1.86,4.52-2.79,7.43-2.79,2.03,0,3.87.41,5.54,1.24,1.66.82,2.98,2.02,3.95,3.6.97,1.58,1.45,3.47,1.45,5.66h-21.88Z"/>
  </g>
  <g>
    <path class="cls-1" d="m148.69,478.5c.13-1.23.29-2.65.47-4.27.19-1.62.39-3.31.6-5.07.21-1.77.43-3.54.65-5.33.22-1.79.44-3.46.65-5.02-.76,1.46-1.52,2.92-2.3,4.4-.77,1.47-1.51,2.87-2.2,4.19-.69,1.32-1.33,2.52-1.91,3.59-.58,1.07-1.05,1.94-1.41,2.6-.33.44-.66.87-.99,1.27-.33.4-.65.75-.98,1.05s-.64.54-.95.72c-.31.18-.62.27-.92.27-.4,0-.72-.09-.96-.26-.24-.17-.35-.43-.35-.77,0-.07,0-.14.01-.2s.02-.13.05-.2c-.09-2.03-.15-4.08-.19-6.15-.04-2.07-.06-4.1-.06-6.1v-1.42c0-.47,0-.94.02-1.39-.57,1.29-1.19,2.62-1.87,4.01-.67,1.39-1.37,2.76-2.1,4.11s-1.48,2.65-2.25,3.9c-.77,1.25-1.54,2.39-2.32,3.41-.77,1.02-1.53,1.9-2.29,2.62-.75.72-1.47,1.23-2.16,1.51-.6.24-1.12.42-1.57.53s-.84.16-1.18.16c-.51,0-.9-.1-1.15-.31-.25-.21-.38-.46-.38-.76,0-.36.15-.73.45-1.12.3-.39.72-.69,1.27-.9.66-.26,1.38-.83,2.16-1.71.78-.88,1.58-1.95,2.41-3.21.83-1.26,1.67-2.66,2.51-4.21s1.66-3.11,2.46-4.7,1.54-3.14,2.24-4.67c.7-1.52,1.32-2.9,1.87-4.13.54-1.23.99-2.26,1.34-3.08s.57-1.33.65-1.53c.2-.44.48-.76.84-.97.36-.2.72-.3,1.09-.3.51,0,.87.14,1.07.42.2.28.3.78.3,1.49.11.9.21,1.75.29,2.54.08.79.15,1.61.2,2.45.06.84.1,1.74.12,2.7s.03,2.08.03,3.34c0,.9-.02,1.9-.05,2.98s-.05,2.3-.05,3.65c1.72-3.12,3.24-5.87,4.56-8.25,1.32-2.38,2.47-4.38,3.45-5.99.98-1.61,1.81-2.82,2.48-3.65.67-.82,1.21-1.23,1.61-1.23h.15s.09,0,.13-.01c.04,0,.09-.01.13-.01.34,0,.61.21.82.64.2.43.3.99.3,1.67-.06.7-.14,1.57-.26,2.62-.11,1.04-.25,2.19-.4,3.44-.15,1.25-.31,2.57-.48,3.96-.17,1.39-.34,2.76-.51,4.13-.17,1.37-.33,2.69-.48,3.98-.15,1.29-.28,2.45-.38,3.5-.03.19-.04.38-.04.57v.59c0,.37,0,.75.02,1.13s.02.75.02,1.13c0,.43-.02.86-.06,1.3-.04.44-.16.83-.35,1.18-.19.35-.5.64-.91.86-.42.22-.99.33-1.72.33-.39,0-.69-.15-.92-.44-.23-.29-.34-.82-.34-1.58Z"/>
    <path class="cls-1" d="m181.49,473.85c-.26.24-.6.58-1.03,1.01-.43.43-.92.89-1.47,1.39-.55.5-1.14,1.01-1.76,1.51-.62.51-1.26.97-1.91,1.38-.65.42-1.29.75-1.92,1.02s-1.22.4-1.78.4c-.5,0-.93-.11-1.29-.32-.36-.21-.65-.49-.89-.84-.24-.34-.41-.73-.53-1.17-.11-.44-.17-.88-.17-1.34,0-.3.02-.6.06-.89.04-.29.11-.57.21-.83-.44.6-.95,1.22-1.51,1.86-.56.64-1.17,1.22-1.82,1.74-.65.52-1.33.95-2.04,1.29-.71.34-1.43.5-2.16.5-.37,0-.8-.08-1.3-.22-.49-.15-.96-.4-1.41-.74-.44-.34-.82-.79-1.12-1.33-.3-.54-.45-1.21-.45-2,0-.59.09-1.29.27-2.1.18-.81.45-1.66.82-2.54s.83-1.75,1.39-2.61c.56-.86,1.23-1.63,2.01-2.31.77-.68,1.65-1.23,2.64-1.65.99-.42,2.09-.63,3.3-.63.63,0,1.18.08,1.65.24.47.16.87.33,1.2.52.37.23.7.48.99.75.24-.13.49-.25.75-.36.21-.1.44-.19.68-.27.24-.08.44-.12.61-.12.54,0,.99.15,1.33.45.34.3.52.63.52.99,0,.1,0,.18-.02.24-.07.27-.18.62-.33,1.03-.15.42-.32.88-.5,1.38-.19.51-.38,1.04-.57,1.59-.19.55-.37,1.09-.53,1.62s-.29,1.03-.39,1.49-.15.86-.15,1.19c0,.43.07.78.21,1.06.14.28.39.42.73.42.21,0,.47-.07.76-.2.29-.14.61-.32.95-.55s.7-.49,1.06-.78.72-.59,1.06-.89c.8-.71,1.65-1.53,2.55-2.45.23-.19.45-.28.67-.28.29,0,.53.14.72.42.19.28.29.59.29.93,0,.4-.14.74-.41,1.01Zm-14.87-5.54c-.67,0-1.32.17-1.95.51-.63.34-1.19.79-1.67,1.35s-.87,1.18-1.16,1.88c-.29.69-.43,1.39-.43,2.09,0,.29.02.58.05.89.04.31.12.59.25.85.13.26.31.47.55.64.24.17.55.26.95.26.31,0,.68-.14,1.1-.42.42-.28.86-.64,1.31-1.07s.89-.92,1.32-1.44.82-1.03,1.16-1.53c.34-.5.62-.95.84-1.35.21-.4.32-.69.32-.88,0-.27-.09-.52-.28-.74-.19-.22-.42-.41-.69-.57-.27-.16-.56-.28-.87-.35-.31-.08-.58-.12-.8-.12Z"/>
    <path class="cls-1" d="m192.33,475.67s-.02.06-.02.11,0,.08-.02.11c0,.26.06.53.19.8.13.28.34.42.62.42.11,0,.2-.01.26-.04.81-.24,1.64-.63,2.48-1.16.84-.53,1.64-1.11,2.41-1.74.77-.63,1.48-1.27,2.13-1.93.65-.66,1.19-1.24,1.62-1.76.2-.24.42-.37.67-.37.21,0,.4.1.57.3.16.2.25.47.25.82,0,.27-.07.59-.23.96-.15.37-.4.77-.74,1.2-.84.93-1.71,1.82-2.6,2.68-.89.86-1.78,1.62-2.68,2.28-.9.67-1.8,1.2-2.69,1.6-.89.4-1.77.6-2.63.6-1.04,0-1.87-.3-2.47-.89-.6-.59-.9-1.48-.9-2.67v-.22c0-.08,0-.15.02-.23-.33.6-.75,1.15-1.27,1.64-.51.49-1.08.92-1.69,1.27-.62.35-1.25.62-1.91.82-.66.19-1.29.29-1.91.29-.53,0-1.02-.07-1.46-.21-.44-.14-.83-.37-1.15-.69s-.57-.72-.75-1.2c-.18-.49-.27-1.07-.27-1.76,0-1.2.19-2.34.56-3.42.37-1.08.87-2.07,1.48-2.98.61-.91,1.32-1.72,2.11-2.45.79-.72,1.62-1.34,2.47-1.85.85-.51,1.7-.9,2.54-1.17.84-.27,1.62-.41,2.32-.41.82,0,1.52.14,2.1.41.29.14.55.34.79.58.06-.13.11-.25.17-.36.14-.34.27-.64.39-.89.11-.25.19-.43.24-.55.04-.13.16-.43.36-.9.2-.47.43-1.03.7-1.66.26-.64.55-1.32.86-2.05.31-.73.59-1.42.85-2.06.26-.64.48-1.2.67-1.66.19-.46.3-.76.34-.89.1-.36.24-.7.41-1.04.17-.34.38-.63.61-.88s.51-.45.83-.6.67-.23,1.07-.23c.54,0,.99.12,1.35.35.36.24.54.69.54,1.36,0,.27-.04.55-.11.84s-.15.57-.25.84c-.09.27-.19.54-.3.8-.11.26-.2.51-.29.74-.72,1.43-1.47,2.99-2.25,4.67s-1.57,3.37-2.34,5.07-1.51,3.36-2.21,4.98-1.32,3.08-1.84,4.38Zm-.64-8.39c-.86.03-1.76.21-2.7.56-1.09.37-2.08.93-2.98,1.66-.9.74-1.66,1.64-2.28,2.71-.62,1.07-.98,2.3-1.06,3.69,0,.57.24.86.73.86.6,0,1.17-.12,1.72-.38.54-.25,1.06-.59,1.56-1.01s.95-.9,1.38-1.45.83-1.11,1.19-1.7c.36-.59.69-1.17.99-1.75.29-.58.55-1.12.76-1.62.07-.16.17-.38.3-.67.11-.27.25-.58.41-.92Z"/>
    <path class="cls-1" d="m209.64,464.41c1.19,0,2.07.29,2.66.86.59.57.88,1.37.88,2.38,0,.6-.16,1.23-.47,1.89-.31.66-.86,1.33-1.63,2.01-.77.68-1.81,1.37-3.1,2.08s-2.91,1.42-4.86,2.13c.07.42.29.74.67.98.37.24.86.35,1.48.35.66,0,1.36-.1,2.11-.29.75-.19,1.49-.44,2.23-.74.74-.3,1.46-.63,2.16-.98s1.33-.68,1.9-1c.56-.31,1.04-.59,1.42-.82.38-.23.63-.37.76-.43.13-.08.25-.14.35-.15.11-.01.2-.02.29-.02.17,0,.31.04.43.12.11.08.21.17.29.28.08.11.13.22.16.34.03.12.04.22.04.31,0,.13-.01.28-.04.46-.03.18-.14.38-.32.61-.07.07-.31.26-.72.58s-.93.69-1.58,1.12c-.64.43-1.39.88-2.24,1.36-.85.48-1.75.92-2.7,1.32s-1.94.73-2.97,1-2.05.4-3.05.4c-.86,0-1.62-.16-2.29-.49s-1.23-.77-1.69-1.33-.82-1.2-1.06-1.93-.36-1.5-.36-2.3c0-.62.12-1.29.36-2.03s.59-1.48,1.05-2.22c.46-.74,1.02-1.47,1.68-2.18s1.41-1.33,2.24-1.88c.83-.54,1.74-.98,2.74-1.31.99-.33,2.06-.49,3.19-.49Zm-.77,2.96c-.07-.01-.14-.02-.19-.02h-.19c-.54,0-1.05.11-1.52.32-.47.21-.9.5-1.3.85-.39.35-.74.75-1.05,1.19s-.58.88-.83,1.32c-.24.44-.45.85-.61,1.25s-.29.74-.38,1.01c.5-.26,1.02-.55,1.56-.88.54-.33,1.04-.64,1.51-.94.47-.3.88-.57,1.23-.81.35-.24.6-.41.74-.49.64-.4,1.09-.78,1.33-1.13s.36-.65.36-.91c0-.21-.07-.39-.2-.51-.14-.13-.29-.21-.46-.24Z"/>
    <path class="cls-1" d="m227.98,477.3c.86-.73,1.96-1.56,3.29-2.48,1.34-.92,2.96-1.96,4.88-3.12.21-.13.42-.19.62-.19.31,0,.58.13.78.39.21.26.31.57.31.94s-.14.78-.43,1.21c-.29.44-.77.83-1.44,1.17l-7.25,4.98c-.31.29-.6.53-.85.74-.25.21-.5.41-.75.6-.25.19-.51.39-.77.58-.27.19-.56.4-.89.63-.7,1.2-1.33,2.22-1.89,3.06-.56.84-1.11,1.52-1.65,2.04-.54.52-1.1.9-1.67,1.15-.57.24-1.22.36-1.95.36-.67,0-1.14-.13-1.41-.4s-.4-.63-.4-1.1c0-.44.21-.89.62-1.34.42-.45.9-.92,1.46-1.39.56-.48,1.12-.99,1.68-1.52.57-.54,1-1.12,1.3-1.75.39-.8.8-1.66,1.23-2.57s.88-1.84,1.32-2.79.89-1.88,1.34-2.82c.45-.94.88-1.83,1.29-2.68.41-.85.79-1.64,1.16-2.37.36-.73.68-1.35.95-1.87.29-.54.65-.94,1.1-1.19.45-.25.89-.38,1.32-.38.46,0,.85.13,1.18.39.33.26.49.62.49,1.09,0,.32-.03.6-.08.86-.05.26-.15.55-.29.87-.14.32-.33.71-.57,1.16-.24.45-.54,1.02-.91,1.71-.37.69-.82,1.52-1.33,2.5-.52.98-1.12,2.16-1.82,3.55Zm3.78-15.83c.01-.33.09-.67.23-1.02.14-.35.33-.67.59-.95.26-.29.57-.52.94-.71.37-.19.81-.28,1.31-.28.79,0,1.34.15,1.66.44s.48.66.48,1.1c0,.29-.05.6-.16.93-.11.34-.27.65-.49.95-.22.3-.51.55-.87.75s-.79.3-1.29.3c-.89,0-1.51-.14-1.86-.42-.35-.28-.53-.65-.55-1.1Z"/>
    <path class="cls-1" d="m258.68,474.9c-.63.72-1.36,1.41-2.2,2.09-.84.68-1.7,1.28-2.59,1.81s-1.76.95-2.62,1.28c-.86.32-1.63.48-2.32.48s-1.24-.19-1.67-.58c-.43-.39-.64-1.04-.64-1.97,0-.66.11-1.42.34-2.3-.37.56-.84,1.12-1.39,1.7-.56.57-1.19,1.09-1.91,1.57-.72.47-1.52.85-2.4,1.15-.89.29-1.85.44-2.9.44-.47,0-.93-.05-1.36-.15-.44-.1-.82-.27-1.15-.51s-.59-.57-.79-.98c-.2-.41-.3-.92-.3-1.53,0-.01.03-.23.09-.65s.24-1.09.55-2c.31-.91.78-2.08,1.43-3.53.64-1.44,1.55-3.2,2.72-5.26.3-.54.65-.93,1.04-1.17.39-.24.82-.35,1.28-.35.2,0,.41.02.62.07.21.05.41.13.6.24s.34.24.45.41c.11.16.17.35.17.57,0,.14-.02.28-.06.41-.07.24-.23.56-.46.96s-.51.84-.83,1.35c-.31.51-.65,1.05-1,1.64-.35.59-.68,1.19-.98,1.82-.3.63-.56,1.27-.77,1.92-.21.65-.34,1.28-.36,1.9,0,.26.07.49.21.71.14.21.38.32.71.32.93,0,1.82-.26,2.66-.77.84-.51,1.62-1.16,2.34-1.92.72-.77,1.36-1.59,1.94-2.47.58-.88,1.06-1.68,1.45-2.41.27-.49.51-1.01.72-1.57.21-.56.43-1.07.68-1.54.24-.47.52-.87.84-1.18.31-.31.71-.47,1.18-.47.51,0,.92.16,1.22.49s.45.72.45,1.18c0,.26-.1.61-.29,1.06-.19.45-.44.96-.73,1.54-.29.58-.61,1.2-.95,1.86s-.66,1.33-.96,2.01-.54,1.34-.73,2c-.19.65-.29,1.25-.29,1.81,0,.52.31.77.94.77.44,0,.99-.13,1.65-.39.66-.26,1.35-.62,2.07-1.08.72-.46,1.44-1.01,2.17-1.64.72-.63,1.36-1.31,1.92-2.04l.21,2.92Z"/>
    <path class="cls-1" d="m261.9,467.95c.87.46,1.65.98,2.34,1.57.69.59,1.27,1.21,1.75,1.86.48.65.84,1.31,1.09,1.98.25.67.38,1.33.38,1.97,0,.82-.23,1.55-.7,2.2-.47.65-1.07,1.2-1.82,1.65-.75.45-1.61.79-2.57,1.03-.97.24-1.94.35-2.93.35-.74,0-1.47-.08-2.17-.25-.7-.17-1.34-.42-1.92-.76-.58-.34-1.08-.78-1.49-1.32-.41-.54-.71-1.18-.88-1.92-.03-.11-.04-.21-.04-.28,0-.39.14-.72.41-1,.27-.28.57-.42.9-.42.16,0,.33.03.53.09.19.06.34.19.44.39.19.34.45.65.78.92.34.27.71.5,1.13.7.42.19.85.34,1.32.45.46.11.92.16,1.36.16s.9-.04,1.32-.13.79-.22,1.12-.41.58-.42.76-.71.28-.64.28-1.05c0-.73-.16-1.4-.49-2.02-.33-.61-.75-1.18-1.28-1.71-.52-.52-1.12-1.01-1.78-1.46-.67-.45-1.33-.88-1.98-1.3-.07-.04-.18-.17-.32-.38-.14-.21-.21-.42-.21-.63,0-.17.04-.31.13-.41.23-.3.49-.61.79-.92.3-.31.62-.6.97-.87s.71-.48,1.12-.64c.4-.16.81-.25,1.24-.25.31,0,.61.04.88.13s.5.2.69.33.33.29.44.45c.11.17.16.32.16.46,0,.2-.05.39-.15.58s-.23.36-.4.54-.35.34-.56.51c-.21.17-.41.34-.61.49Z"/>
    <path class="cls-1" d="m275.25,468.1c-.53,1.03-1.03,2.04-1.5,3.01-.47.98-.92,1.88-1.33,2.71-.17.34-.34.74-.5,1.19-.16.45-.25.85-.25,1.19,0,.2.05.36.14.47.09.11.25.17.46.17.3,0,.68-.09,1.14-.27s.95-.42,1.48-.71c.53-.29,1.09-.63,1.67-1.01.59-.38,1.16-.77,1.73-1.18.56-.41,1.1-.82,1.62-1.22.52-.41.97-.78,1.37-1.13.23-.16.44-.24.64-.24.24,0,.44.11.6.32.16.21.24.49.24.82s-.08.67-.24,1.01c-.16.34-.44.68-.86,1.01-.93.84-1.87,1.65-2.82,2.4-.95.76-1.9,1.43-2.83,2.01-.94.58-1.86,1.04-2.78,1.38-.92.34-1.8.51-2.66.51-.57,0-1.05-.08-1.44-.22-.39-.15-.7-.36-.93-.62-.24-.26-.4-.57-.5-.92-.1-.35-.15-.73-.15-1.13,0-.71.12-1.46.36-2.23s.52-1.47.82-2.08c.43-.89.85-1.77,1.28-2.64.42-.87.83-1.71,1.23-2.51h-.92c-.8,0-1.35-.13-1.65-.39-.3-.26-.45-.55-.45-.88,0-.14.05-.32.14-.53.09-.21.23-.4.41-.58.18-.18.4-.33.65-.46s.55-.19.88-.19h2.32l4.53-8.99c.29-.54.64-.93,1.06-1.17.42-.24.86-.35,1.32-.35.43,0,.82.11,1.18.34.36.23.54.61.54,1.14,0,.27-.06.55-.18.83-.12.28-.28.6-.48.98-.13.24-.29.53-.47.87-.19.34-.38.69-.59,1.07-.21.38-.42.78-.64,1.19-.22.42-.44.82-.65,1.2-.49.92-1,1.88-1.54,2.9h6.99c.34,0,.66.02.94.05.29.04.53.11.74.21.21.11.37.25.48.44.11.19.17.44.17.75,0,.16-.03.32-.08.47-.05.16-.14.3-.28.43-.14.13-.32.24-.56.32-.24.08-.54.14-.91.17l-8.92.06Z"/>
    <path class="cls-1" d="m305.28,467.84c-.74.03-1.45.05-2.11.06-.67.01-1.31.02-1.94.03-.63,0-1.25,0-1.87,0h-1.87c-.37.73-.79,1.58-1.25,2.54-.46.96-.95,1.98-1.46,3.04-.51,1.06-1.02,2.13-1.52,3.21s-.99,2.1-1.45,3.07c-.46.97-.87,1.84-1.24,2.62-.37.78-.67,1.4-.9,1.86-.16.33-.35.63-.58.91-.23.28-.48.52-.75.72s-.55.35-.84.46c-.29.11-.55.16-.79.16-.34,0-.65-.09-.92-.26-.27-.17-.41-.44-.41-.82,0-.19.04-.4.13-.65s.21-.54.36-.87l7.57-16.05h-1.14c-.79,0-1.32-.12-1.61-.37-.29-.24-.43-.53-.43-.86s.18-.68.54-1c.36-.32.88-.48,1.57-.48h2.53c1.02-2.05,2.03-3.73,3.06-5.06,1.02-1.33,2.03-2.38,3.01-3.15.99-.77,1.95-1.31,2.89-1.61.94-.3,1.83-.45,2.69-.45.4,0,.78.08,1.15.24s.69.39.97.71.5.71.68,1.19c.17.48.26,1.04.26,1.68s-.09,1.29-.26,2.04c-.04.2-.13.37-.26.5-.13.14-.27.25-.43.33-.16.09-.31.15-.47.18-.16.04-.29.05-.41.05-.29,0-.55-.07-.79-.2-.24-.14-.36-.35-.36-.63,0-.19.01-.36.03-.52.02-.16.03-.31.03-.47,0-.6-.11-1.03-.33-1.29-.22-.26-.52-.39-.89-.39-.44,0-.96.19-1.56.58-.59.39-1.19.9-1.8,1.54-.61.64-1.19,1.38-1.75,2.2-.56.82-1.02,1.66-1.37,2.52h5c.44,0,.86,0,1.24.02.39.01.73.06,1.02.13.29.07.52.19.69.35.16.16.25.4.25.72,0,.16-.03.31-.09.47s-.15.3-.29.44c-.14.14-.33.25-.57.34-.24.09-.56.15-.94.18Z"/>
    <path class="cls-1" d="m310.67,464.43c.54,0,1.13.07,1.75.21.62.14,1.2.39,1.73.73.53.34.97.8,1.32,1.36.35.57.53,1.26.53,2.09,0,.43-.06.92-.17,1.47-.11.55-.29,1.13-.52,1.73.14.17.31.29.49.36.19.07.39.11.6.11.3,0,.63-.09,1-.26.36-.17.74-.39,1.13-.67.39-.27.77-.58,1.16-.92.39-.34.75-.69,1.09-1.03.34-.34.65-.67.93-.98.28-.31.51-.57.7-.78.1-.1.22-.15.36-.15.2,0,.38.1.54.31.16.21.24.5.24.87s-.11.8-.33,1.29c-.22.49-.63.99-1.23,1.52-.34.37-.74.8-1.18,1.29s-.92.94-1.42,1.37c-.5.43-1.02.79-1.57,1.09-.54.3-1.09.45-1.63.45-.37,0-.73-.06-1.08-.17-.35-.11-.7-.3-1.06-.56-.52.8-1.1,1.53-1.76,2.19-.66.66-1.39,1.22-2.2,1.69-.81.47-1.68.84-2.62,1.11-.94.26-1.93.4-2.99.4-.4,0-.87-.08-1.39-.24-.53-.16-1.03-.42-1.51-.78-.48-.37-.88-.84-1.21-1.43-.33-.59-.49-1.3-.49-2.15,0-.57.09-1.26.28-2.06.19-.8.47-1.63.85-2.48.38-.85.86-1.69,1.44-2.53.58-.84,1.27-1.59,2.07-2.25s1.72-1.2,2.75-1.61c1.03-.41,2.17-.61,3.43-.61Zm-1.12,3.78c-.67,0-1.32.17-1.94.5-.62.34-1.17.78-1.65,1.33-.48.55-.86,1.17-1.15,1.87s-.43,1.41-.43,2.13c0,.27.02.57.06.89.04.32.13.62.27.9.14.28.33.51.59.7.26.19.6.28,1.03.28.66,0,1.3-.18,1.92-.53.62-.35,1.18-.81,1.66-1.37.49-.56.87-1.2,1.16-1.92.29-.71.43-1.44.43-2.17,0-.29-.02-.58-.05-.89s-.12-.59-.26-.85c-.14-.26-.33-.47-.59-.63-.26-.16-.61-.25-1.05-.25Z"/>
    <path class="cls-1" d="m327.02,467.52c.56-.34,1.13-.66,1.73-.94.59-.29,1.17-.53,1.73-.74.56-.21,1.09-.37,1.6-.49.51-.12.96-.18,1.36-.18.64,0,1.14.15,1.49.46.35.31.53.83.53,1.56,0,.16,0,.33-.02.5s-.04.37-.09.57c-.07.37-.29.81-.64,1.31-.36.5-.78,1.02-1.26,1.57-.48.54-.99,1.09-1.54,1.64-.55.55-1.06,1.06-1.52,1.52-.46.46-.85.87-1.16,1.21-.31.34-.46.58-.46.71,0,.11,0,.19.02.24.01.04.08.06.19.06.77-.33,1.63-.73,2.59-1.19.95-.46,1.9-.94,2.84-1.43.94-.49,1.84-.96,2.68-1.43.84-.46,1.56-.87,2.15-1.21.13-.07.26-.13.4-.18s.26-.08.38-.08c.26,0,.47.09.64.26.17.17.26.4.26.69,0,.33-.14.7-.42,1.13s-.75.86-1.41,1.32c-.5.31-1.06.67-1.68,1.06s-1.27.8-1.95,1.22-1.37.83-2.06,1.23-1.36.76-2.01,1.07-1.25.57-1.81.76c-.56.19-1.05.29-1.47.29-.99,0-1.73-.24-2.22-.71-.49-.47-.74-1.08-.74-1.82,0-.11,0-.2.02-.26.1-.63.29-1.24.56-1.82.27-.59.58-1.14.92-1.67s.7-1.03,1.07-1.51c.37-.48.71-.93,1.02-1.35.31-.42.56-.81.76-1.17.2-.36.3-.69.3-.99,0-.07-.01-.14-.04-.21-.03-.07-.09-.11-.19-.11-.17,0-.45.06-.85.19-.39.13-.81.3-1.25.51-.44.21-.87.46-1.27.74-.4.28-.69.58-.86.89-.23.4-.49.91-.79,1.52-.3.62-.61,1.26-.93,1.93-.32.67-.63,1.34-.93,2-.3.66-.56,1.22-.77,1.69-.17.42-.4.79-.68,1.12-.28.33-.58.61-.91.84s-.67.41-1.01.54c-.34.13-.66.19-.94.19-.33,0-.59-.09-.78-.26-.19-.17-.29-.45-.29-.84,0-.16.02-.35.08-.59.05-.24.15-.5.31-.78.26-.49.52-1.02.78-1.59.26-.57.57-1.23.91-1.96s.74-1.58,1.19-2.53c.45-.95.98-2.05,1.6-3.29-.2-.17-.37-.38-.5-.63-.14-.25-.2-.56-.2-.93,0-.34.07-.64.21-.89s.34-.45.58-.61c.24-.16.53-.28.85-.35.32-.08.66-.12,1.02-.12s.74.03,1.12.1c.37.06.7.16,1,.29.29.13.53.29.72.47.19.19.28.4.28.64,0,.04-.01.1-.04.17-.03.07-.06.15-.1.24-.04.09-.07.16-.1.24-.03.07-.04.13-.04.17,0,.03,0,.04.02.04h.02l.04-.02Z"/>
    <path class="cls-1" d="m360.87,466.42c.4-.31.74-.55,1.02-.72s.52-.29.72-.37c.2-.08.38-.12.55-.14.16-.01.33-.02.5-.02.3,0,.51.11.64.33s.19.45.19.7c0,.2-.04.39-.11.56l-4.81,10.02c.69-.52,1.48-1.02,2.37-1.51.89-.49,1.75-.94,2.57-1.33s1.53-.71,2.12-.96c.59-.24.93-.36,1.02-.36.36,0,.67.14.94.41.27.27.41.62.41,1.03,0,.37-.14.76-.42,1.18-.28.42-.77.82-1.47,1.2-1,.56-1.87,1.03-2.62,1.43s-1.4.75-1.97,1.06c-.57.31-1.08.6-1.52.86-.44.26-.86.52-1.26.79-.39.27-.78.56-1.16.87s-.79.67-1.23,1.08c-.33.86-.65,1.68-.98,2.47-.32.79-.62,1.48-.88,2.08s-.48,1.09-.65,1.46c-.17.37-.26.57-.28.6-1.16,2.4-2.43,3.6-3.82,3.6-.57,0-1.04-.19-1.39-.57s-.54-.89-.54-1.53c0-.6.08-1.2.23-1.79.15-.59.41-1.25.79-1.96.38-.71.88-1.51,1.5-2.39.62-.88,1.4-1.91,2.35-3.1l4.29-8.69c-2.15,2.55-4.09,4.49-5.84,5.83-1.75,1.34-3.38,2.02-4.89,2.02-.49,0-.9-.11-1.24-.33s-.52-.59-.52-1.11c0-.71.17-1.52.52-2.42.2-.49.4-.93.6-1.34.2-.41.41-.82.62-1.22.21-.41.44-.85.68-1.32.24-.47.49-1,.77-1.6s.59-1.28.92-2.06c.34-.78.71-1.69,1.13-2.74.29-.56.66-.96,1.12-1.21.46-.25.9-.38,1.33-.38s.82.1,1.13.31c.31.21.46.48.46.83,0,.17-.03.32-.09.45l-3.93,8.17c-.2.42-.3.74-.3.99,0,.21.09.32.26.32.16,0,.36-.08.6-.24.24-.16.47-.34.69-.54l8.86-8.71Z"/>
    <path class="cls-1" d="m376.47,464.43c.54,0,1.13.07,1.75.21.62.14,1.2.39,1.73.73.53.34.97.8,1.32,1.36.35.57.53,1.26.53,2.09,0,.43-.06.92-.17,1.47-.11.55-.29,1.13-.52,1.73.14.17.31.29.49.36.19.07.39.11.6.11.3,0,.63-.09,1-.26.36-.17.74-.39,1.13-.67.39-.27.77-.58,1.16-.92.39-.34.75-.69,1.09-1.03.34-.34.65-.67.93-.98.28-.31.51-.57.7-.78.1-.1.22-.15.36-.15.2,0,.38.1.54.31.16.21.24.5.24.87s-.11.8-.33,1.29c-.22.49-.63.99-1.23,1.52-.34.37-.74.8-1.18,1.29s-.92.94-1.42,1.37c-.5.43-1.02.79-1.57,1.09-.54.3-1.09.45-1.63.45-.37,0-.73-.06-1.08-.17-.35-.11-.7-.3-1.06-.56-.52.8-1.1,1.53-1.76,2.19-.66.66-1.39,1.22-2.2,1.69-.81.47-1.68.84-2.62,1.11-.94.26-1.93.4-2.99.4-.4,0-.87-.08-1.39-.24-.53-.16-1.03-.42-1.51-.78-.48-.37-.88-.84-1.21-1.43-.33-.59-.49-1.3-.49-2.15,0-.57.09-1.26.28-2.06.19-.8.47-1.63.85-2.48.38-.85.86-1.69,1.44-2.53.58-.84,1.27-1.59,2.07-2.25s1.72-1.2,2.75-1.61c1.03-.41,2.17-.61,3.43-.61Zm-1.12,3.78c-.67,0-1.32.17-1.94.5-.62.34-1.17.78-1.65,1.33-.48.55-.86,1.17-1.15,1.87s-.43,1.41-.43,2.13c0,.27.02.57.06.89.04.32.13.62.27.9.14.28.33.51.59.7.26.19.6.28,1.03.28.66,0,1.3-.18,1.92-.53.62-.35,1.18-.81,1.66-1.37.49-.56.87-1.2,1.16-1.92.29-.71.43-1.44.43-2.17,0-.29-.02-.58-.05-.89s-.12-.59-.26-.85c-.14-.26-.33-.47-.59-.63-.26-.16-.61-.25-1.05-.25Z"/>
    <path class="cls-1" d="m408.18,474.9c-.63.72-1.36,1.41-2.2,2.09-.84.68-1.7,1.28-2.59,1.81s-1.76.95-2.62,1.28c-.86.32-1.63.48-2.32.48s-1.24-.19-1.67-.58c-.43-.39-.64-1.04-.64-1.97,0-.66.11-1.42.34-2.3-.37.56-.84,1.12-1.39,1.7-.56.57-1.19,1.09-1.91,1.57-.72.47-1.52.85-2.4,1.15-.89.29-1.85.44-2.9.44-.47,0-.93-.05-1.36-.15-.44-.1-.82-.27-1.15-.51s-.59-.57-.79-.98c-.2-.41-.3-.92-.3-1.53,0-.01.03-.23.09-.65s.24-1.09.55-2c.31-.91.78-2.08,1.43-3.53.64-1.44,1.55-3.2,2.72-5.26.3-.54.65-.93,1.04-1.17.39-.24.82-.35,1.28-.35.2,0,.41.02.62.07.21.05.41.13.6.24s.34.24.45.41c.11.16.17.35.17.57,0,.14-.02.28-.06.41-.07.24-.23.56-.46.96s-.51.84-.83,1.35c-.31.51-.65,1.05-1,1.64-.35.59-.68,1.19-.98,1.82-.3.63-.56,1.27-.77,1.92-.21.65-.34,1.28-.36,1.9,0,.26.07.49.21.71.14.21.38.32.71.32.93,0,1.82-.26,2.66-.77.84-.51,1.62-1.16,2.34-1.92.72-.77,1.36-1.59,1.94-2.47.58-.88,1.06-1.68,1.45-2.41.27-.49.51-1.01.72-1.57.21-.56.43-1.07.68-1.54.24-.47.52-.87.84-1.18.31-.31.71-.47,1.18-.47.51,0,.92.16,1.22.49s.45.72.45,1.18c0,.26-.1.61-.29,1.06-.19.45-.44.96-.73,1.54-.29.58-.61,1.2-.95,1.86s-.66,1.33-.96,2.01-.54,1.34-.73,2c-.19.65-.29,1.25-.29,1.81,0,.52.31.77.94.77.44,0,.99-.13,1.65-.39.66-.26,1.35-.62,2.07-1.08.72-.46,1.44-1.01,2.17-1.64.72-.63,1.36-1.31,1.92-2.04l.21,2.92Z"/>
    <path class="cls-1" d="m415.43,477.04c0,.44-.08.87-.25,1.27-.16.4-.39.75-.67,1.06-.28.31-.6.55-.98.73s-.77.27-1.18.27c-.34,0-.67-.07-.97-.2-.3-.14-.56-.32-.78-.55-.22-.23-.4-.5-.53-.8-.13-.31-.19-.63-.19-.98,0-.43.08-.84.25-1.23s.39-.74.68-1.04c.29-.3.62-.54,1.01-.72.39-.18.8-.27,1.24-.27.7,0,1.27.24,1.71.71.44.47.65,1.06.65,1.76Z"/>
    <path class="cls-1" d="m431.13,477.04c0,.44-.08.87-.25,1.27-.16.4-.39.75-.67,1.06-.28.31-.6.55-.98.73s-.77.27-1.18.27c-.34,0-.67-.07-.97-.2-.3-.14-.56-.32-.78-.55-.22-.23-.4-.5-.53-.8-.13-.31-.19-.63-.19-.98,0-.43.08-.84.25-1.23s.39-.74.68-1.04c.29-.3.62-.54,1.01-.72.39-.18.8-.27,1.24-.27.7,0,1.27.24,1.71.71.44.47.65,1.06.65,1.76Z"/>
    <path class="cls-1" d="m446.84,477.04c0,.44-.08.87-.25,1.27-.16.4-.39.75-.67,1.06-.28.31-.6.55-.98.73s-.77.27-1.18.27c-.34,0-.67-.07-.97-.2-.3-.14-.56-.32-.78-.55-.22-.23-.4-.5-.53-.8-.13-.31-.19-.63-.19-.98,0-.43.08-.84.25-1.23s.39-.74.68-1.04c.29-.3.62-.54,1.01-.72.39-.18.8-.27,1.24-.27.7,0,1.27.24,1.71.71.44.47.65,1.06.65,1.76Z"/>
  </g>
</svg>